<svg width="408" height="408" fill="none" xmlns="http://www.w3.org/2000/svg"><mask id="mask0_1177_178458" style="mask-type:alpha" maskUnits="userSpaceOnUse" x="54" y="54" width="299" height="299"><circle cx="203.644" cy="203.647" r="149.08" transform="rotate(60 203.644 203.647)" fill="#151515"/></mask><g mask="url(#mask0_1177_178458)" stroke="#E6A691" stroke-width="2"><path d="M-7.602 132.547l179.057 310.134M259.656-21.75l179.056 310.134M9.102 122.906l179.056 310.135M25.797 113.266L204.853 423.4M42.508 103.617l179.056 310.135M59.219 93.969l179.056 310.134M75.914 84.336L254.97 394.47M92.61 74.688l179.056 310.134M109.328 65.023l179.056 310.135M126.016 55.383l179.056 310.134M142.711 45.758l179.056 310.134M159.43 36.11l179.056 310.134M176.141 26.453l179.056 310.135M192.836 16.813l179.056 310.134M209.531 7.172l179.056 310.134M226.242-2.477l179.056 310.135M242.945-12.117l179.057 310.134"/></g></svg>