<svg width="325" height="325" fill="none" xmlns="http://www.w3.org/2000/svg"><mask id="mask0_1175_178390" style="mask-type:alpha" maskUnits="userSpaceOnUse" x="43" y="43" width="238" height="238"><circle cx="162.085" cy="162.085" r="118.655" transform="rotate(60 162.085 162.085)" fill="#151515"/></mask><g mask="url(#mask0_1175_178390)" stroke="#E6A691" stroke-width="2"><path d="M-7.203 102.977l135.835 235.272m66.915-352.327l135.835 235.273M5.469 95.664l135.834 235.273M18.14 88.352l135.835 235.272M30.813 81.031l135.834 235.273M43.492 73.71l135.835 235.274M56.156 66.398l135.835 235.273M68.82 59.086l135.835 235.273M81.5 51.758L217.335 287.03M94.164 44.445L230 279.718M106.828 37.133l135.835 235.272M119.508 29.813l135.835 235.272M132.188 22.492l135.834 235.273M144.852 15.18l135.834 235.272M157.523 7.867L293.358 243.14M170.195.547L306.03 235.82M182.875-6.773L318.71 228.499"/></g></svg>