<svg width="200" height="200" fill="none" xmlns="http://www.w3.org/2000/svg"><mask id="mask0_1168_178000" style="mask-type:alpha" maskUnits="userSpaceOnUse" x="18" y="18" width="164" height="164"><circle cx="99.679" cy="99.683" r="81.388" transform="rotate(-15 99.68 99.683)" fill="#151515"/></mask><g mask="url(#mask0_1168_178000)" stroke="#E6A691" stroke-width="2"><path d="M30.469 201.352l179.994-48.23M-11.094 46.25L168.901-1.98M27.867 191.664l179.995-48.229M25.273 181.969l179.995-48.23M22.672 172.273l179.994-48.229M20.078 162.578l179.995-48.229M17.477 152.883l179.994-48.23M14.883 143.195l179.994-48.23M12.281 133.492l179.995-48.23M9.68 123.805l179.994-48.23M7.086 114.109L187.08 65.88M4.484 104.414l179.995-48.23M1.89 94.719l179.995-48.23M-.71 85.023l179.994-48.229M-3.305 75.328l179.995-48.23M-5.906 65.64l179.994-48.229M-8.5 55.938l179.994-48.23"/></g></svg>