<svg width="276" height="276" fill="none" xmlns="http://www.w3.org/2000/svg"><mask id="mask0_1177_178437" style="mask-type:alpha" maskUnits="userSpaceOnUse" x="36" y="36" width="203" height="203"><circle cx="137.858" cy="137.859" r="100.92" transform="rotate(60 137.858 137.859)" fill="#151515"/></mask><g mask="url(#mask0_1177_178437)" stroke="#E6A691" stroke-width="2"><path d="M-6.133 87.586L109.4 287.693m56.912-299.662L281.845 188.14M4.648 81.367L120.18 281.474M15.422 75.148l115.532 200.108M26.203 68.922l115.532 200.107M36.984 62.695l115.532 200.108M47.758 56.477L163.29 256.584M58.531 50.258l115.532 200.107M69.313 44.023l115.532 200.108M80.086 37.805l115.532 200.107M90.86 31.586l115.53 200.107M101.641 25.36l115.532 200.107M112.422 19.133L227.954 219.24M123.195 12.914l115.532 200.107M133.969 6.695l115.532 200.108M144.75.469l115.532 200.107M155.531-5.758L271.063 194.35"/></g></svg>