<svg width="409" height="408" fill="none" xmlns="http://www.w3.org/2000/svg"><mask id="mask0_1172_178010" style="mask-type:alpha" maskUnits="userSpaceOnUse" x="55" y="54" width="299" height="299"><circle cx="204.636" cy="203.647" r="149.08" transform="rotate(60 204.636 203.647)" fill="#151515"/></mask><g mask="url(#mask0_1172_178010)" stroke="#E6A691" stroke-width="2"><path d="M-6.61 132.539l179.057 310.135m88.201-464.432l179.057 310.135M10.094 122.898L189.15 433.033M26.79 113.258l179.055 310.134M43.5 103.609l179.056 310.135M60.21 93.96l179.057 310.135M76.906 84.328l179.056 310.135M93.602 74.68l179.056 310.134M110.32 65.016L289.377 375.15M127.008 55.383l179.056 310.134M143.703 45.75l179.056 310.134M160.422 36.102l179.056 310.134M177.125 26.445L356.181 336.58M193.82 16.805l179.057 310.134M210.523 7.172L389.58 317.306M227.234-2.477l179.057 310.135M243.938-12.125l179.056 310.134"/></g></svg>