<svg width="430" height="430" fill="none" xmlns="http://www.w3.org/2000/svg"><g opacity=".5"><mask id="mask0_1168_177977" style="mask-type:alpha" maskUnits="userSpaceOnUse" x="57" y="57" width="315" height="315"><circle cx="214.71" cy="214.706" r="157.176" transform="rotate(30 214.71 214.706)" fill="#151515"/></mask><g mask="url(#mask0_1168_177977)" stroke="#929292" stroke-width="2"><path d="M-18.648 259.016l311.654 179.933M136.398-9.547l311.655 179.934M-8.96 242.234l311.653 179.934M.734 225.453L312.39 405.387M10.43 208.664l311.654 179.934M20.117 191.883l311.654 179.934M29.797 175.102L341.45 355.035M39.492 158.312l311.654 179.934M49.188 141.508l311.654 179.934m-301.975-196.7l311.654 179.934M68.563 107.961l311.654 179.934M78.25 91.164l311.654 179.934M87.953 74.375l311.654 179.934M97.64 57.594l311.655 179.933M107.328 40.813l311.654 179.933M117.016 24.031L428.67 203.965M126.711 7.242l311.654 179.934"/></g></g></svg>