<svg width="704" height="489" fill="none" xmlns="http://www.w3.org/2000/svg"><mask id="mask0_1171_178006" style="mask-type:alpha" maskUnits="userSpaceOnUse" x="48" y="44" width="394" height="393"><circle cx="245.155" cy="240.445" r="196.321" transform="rotate(-15 245.155 240.445)" fill="#151515"/></mask><g mask="url(#mask0_1171_178006)" stroke="#E6A691" stroke-width="2"><path d="M78.195 485.695l434.178-116.337M-22.055 111.555L412.123-4.783M71.93 462.312l434.178-116.337M65.664 438.93l434.178-116.338M59.398 415.547l434.178-116.338M53.133 392.156L487.31 275.819M46.867 368.781l434.178-116.337M40.602 345.398L474.78 229.061M34.32 321.992l434.178-116.337m-440.443 92.97l434.178-116.338M21.797 275.25l434.178-116.338m-440.444 92.94L449.71 135.514M9.258 228.469l434.178-116.338M2.992 205.078L437.17 88.74M-3.273 181.703L430.905 65.365M-9.531 158.328L424.647 41.99m-440.452 92.94L418.373 18.592"/></g><mask id="mask1_1171_178006" style="mask-type:alpha" maskUnits="userSpaceOnUse" x="464" y="249" width="203" height="203"><circle cx="565.584" cy="350.781" r="100.92" transform="rotate(60 565.584 350.781)" fill="#151515"/></mask><g mask="url(#mask1_1171_178006)" stroke="#E6A691" stroke-width="2"><path d="M421.594 300.508l115.532 200.107m56.913-299.662L709.571 401.06M432.375 294.289l115.532 200.107M443.148 288.07L558.68 488.178M453.93 281.844l115.532 200.107M464.711 275.617l115.532 200.107M475.484 269.398l115.532 200.108M486.258 263.18L601.79 463.287M497.039 256.945l115.532 200.108M507.812 250.727l115.533 200.107M518.586 244.508l115.532 200.107M529.367 238.281l115.532 200.108M540.148 232.055L655.68 432.162M550.922 225.836l115.532 200.107M561.695 219.617l115.532 200.107m-104.75-206.333l115.532 200.107M583.258 207.164L698.79 407.271"/></g><circle cx="197.125" cy="272.516" r="196.125" stroke="#E7E4E4" stroke-width="2"/></svg>