<svg width="225" height="225" fill="none" xmlns="http://www.w3.org/2000/svg"><mask id="mask0_1172_178030" style="mask-type:alpha" maskUnits="userSpaceOnUse" x="30" y="30" width="165" height="165"><circle cx="112.307" cy="112.304" r="82.212" transform="rotate(60 112.307 112.304)" fill="#151515"/></mask><g mask="url(#mask0_1172_178030)" stroke="#E6A691" stroke-width="2"><path d="M-4.992 71.352l94.116 163.013M135.492-9.75l94.116 163.014M3.79 66.281l94.115 163.014M12.57 61.219l94.116 163.014M21.352 56.148l94.116 163.014M30.133 51.078l94.116 163.014M38.914 46.008l94.116 163.014M47.68 40.938l94.116 163.013M56.477 35.86l94.116 163.013M65.242 30.797l94.116 163.014M74.016 25.734l94.116 163.014M82.805 20.664l94.116 163.014M91.586 15.586L185.702 178.6M100.367 10.516l94.116 163.013M109.141 5.453l94.116 163.014M117.93.383l94.116 163.014M126.711-4.688l94.116 163.014"/></g></svg>