<svg width="371" height="371" fill="none" xmlns="http://www.w3.org/2000/svg"><mask id="mask0_1175_178370" style="mask-type:alpha" maskUnits="userSpaceOnUse" x="49" y="49" width="272" height="272"><circle cx="185.191" cy="185.189" r="135.568" transform="rotate(60 185.191 185.189)" fill="#151515"/></mask><g mask="url(#mask0_1175_178370)" stroke="#F27047" stroke-width="2"><path d="M-8.234 117.656l155.197 268.81m76.451-402.552l155.197 268.81M6.242 109.297L161.44 378.106M20.719 100.945l155.197 268.81M35.203 92.578L190.4 361.388M49.68 84.219l155.197 268.809M64.156 75.867l155.197 268.81M78.625 67.508l155.197 268.809M93.117 59.133l155.197 268.809M107.586 50.773l155.197 268.81M122.055 42.43l155.197 268.809M136.539 34.063l155.197 268.809M151.023 25.703l155.198 268.81M165.492 17.344l155.197 268.809M179.969 8.992l155.197 268.81M194.453.633L349.65 269.442M208.93-7.734l155.197 268.809"/></g></svg>