<svg width="325" height="325" fill="none" xmlns="http://www.w3.org/2000/svg"><mask id="mask0_1182_177942" style="mask-type:alpha" maskUnits="userSpaceOnUse" x="43" y="43" width="238" height="238"><circle cx="162.085" cy="162.085" r="118.655" transform="rotate(60 162.085 162.085)" fill="#151515"/></mask><g mask="url(#mask0_1182_177942)" stroke="#E6A691" stroke-width="2"><path d="M-7.21 102.977l135.834 235.272m66.915-352.327l135.835 235.273M5.46 95.664l135.836 235.273M18.133 88.352l135.835 235.272M30.805 81.031l135.834 235.273M43.484 73.71L179.32 308.985M56.148 66.406L191.983 301.68M68.813 59.086l135.834 235.273M81.492 51.758L217.327 287.03M94.156 44.445l135.835 235.273M106.828 37.14l135.835 235.273M119.508 29.82l135.835 235.273M132.18 22.5l135.834 235.273M144.844 15.18l135.834 235.272M157.516 7.867L293.35 243.14M170.188.555l135.834 235.272M182.867-6.766l135.835 235.273"/></g></svg>