<svg width="502" height="502" fill="none" xmlns="http://www.w3.org/2000/svg"><mask id="mask0_1182_177943" style="mask-type:alpha" maskUnits="userSpaceOnUse" x="73" y="73" width="355" height="355"><circle cx="250.572" cy="250.57" r="177.179" transform="rotate(135 250.572 250.57)" fill="#151515"/></mask><g mask="url(#mask0_1182_177943)" stroke="#E6A691" stroke-width="2"><path d="M270.398-16.453L-16.45 270.396m534.044-39.662L230.745 517.583M285.852-1L-.998 285.849M301.297 14.438L14.448 301.286M316.75 29.89L29.901 316.74M332.203 45.352L45.354 332.2M347.641 60.797L60.791 347.646M363.086 76.234L76.237 363.083M378.562 91.695L91.714 378.544m302.294-271.411L107.159 393.982m302.279-271.404L122.589 409.427m302.309-271.388L138.05 424.888m302.302-271.396L153.503 440.341M455.797 168.93L168.948 455.778m302.294-271.403L184.393 471.224m302.302-271.388L199.847 486.685m302.309-271.396L215.307 502.138"/></g></svg>