<svg width="731" height="530" fill="none" xmlns="http://www.w3.org/2000/svg"><g clip-path="url(#clip0_1174_178347)"><path d="M70.961 427.381l1.88-.504 1.108.375 1.217-.158-.19-.705.977-.429.9.85 2.585-.693-.153-.882 1.003-.017.44 1.645 1.37.724-.207 1.735 1.59.917.608 2.272.544.778-.118 1.123-.396 1.029 1.192.688.643.835 1.693.051 1.708-.206 2.84 2.765-1.134.472-.745 1.291-2.225-.16-1.945-.99-.544-.777-.367-.742-1.207-.432-1.91 1.016-1.521-.348-1.897-.5-2.245 1.022-1.807.148-1.14-1.122-1.094-1.889 1.232-.414 1.006-2.201-.112-1.985-.409-.898-.357-1.331-1.119-1.044-1.505-.604-.189-.705zm88.296-166.801l5.933 3.028.247 1.864-.149 1.635 1.39.803 1.54-.832 1.187.353 1.232-.414-.979-2.088.688-1.192.165-1.891 1.787 1.032-.86 1.49.139 2.397 1.578.249 1.691 3.493 1.841 1.857 1.23 1.77 1.428 1.884 2.384 1.376.714 2.663 2.284 1.319 3.339.869 2.936.304 2.887-1.445 2.742-.735 1.949-3.376.905-3.517-.574-3.708-.509-2.215-2.185-1.261-.897-3.034-1.005-1.242-.201-2.633-.777-2.898-1.539-2.61-2.085-1.204-.609-2.272-1.599-.327-.567-2.115-1.589-.917-1.954-.4-.504-1.88-.973-1.754.745-1.291 1.49.86 1.285.411-.952-1.676-.42-1.566-2.371.551-1.66.697-.175-2.22-1.409 1.637-1.788-1.032-1.723.461-3.192-.32-3.585 3.228-2.792 2.427 1.428 5.326-.832 3.162-5.092 1.364-2.236 3.873.618 1.682zm-48.293 84.215l1.773 1.288.165-1.891 1.41-.378.353-1.186.234-1.322-.332-2.178.631-1.092-.179-1.296 1.231-1.673-1.093-.63.573-.994.736-.7-.378-1.41.736-.701.745-1.291 1.164-.984.092-1.536-1.228-.51-.523-.7.516-.893-.336-1.254.574-.993 1.603-.597-.917-1.854.066-1.948-1.005-1.242-.456-1.389-1.589-.918.27-1.499-1.553-1.095-2.292.53-1.115 2.733-1.905 1.35.32 1.51-.76 1.547-2.486.75-.818 1.646.567 2.115-1.952 2.118-1.461.811.952 1.676-.571 2.252-1.377 2.384.065 1.494 1.386 1.727 1.788 1.032-.05 1.693-.228 1.656 2.006-.034 2.143 1.105.902 3.369 1.603-.598z" fill="#131313"/><path d="M107.923 347.547l-.306 1.677-1.79 1.152-.196 2.403-.404 2.879.003 2.517.54 1.703-.829.978 1.887 1.089-.039 2.361.054 2.084 1.699.385.461 1.723.689-1.192.577-1.917 1.274-.258 1.279-1.182 1.247-.67 1.033-1.788 1.41-.378 1.291.746.628 1.091 1.452-.221.344-.596.846.025 1.704.719.866-1.156 1.41-.378 1.696-.874.411-1.286.975-1.688 1.613-1.188.029-1.771-.743-.892-1.426-.625-1.183-1.278-.993-.574-.273-1.018-1.849-.008-1.441.889-2.084.055-1.192-.688-1.719-.463-1.39-.803-.938-1.931-1.541-.427-.325-.585-1.772-1.288-1.681.619-1.304 2.028z" fill="#131313"/><path d="M105.108 367.435l-2.148-.18-1.025-1.321-1.412-.881-1.467.477.013 1.928-.855 1.824-1.376 2.384-.442 1.797 1.26 1.258 1.292.745 1.017-1.532 1.197 1.023 1.412.881 1.551-.164 1.39.803 1.308 1.748.185 1.63.009 2.852 1.117-.216.433-1.207 1.284-.847 1.029.395 1.253-.336.803-1.39 1.019-.273.004-.924-.545-.778.856-.565 1.097-.294.993.573.402-.695-.023-1.337.459-.795-.613-1.347-1.192-.688-.315-1.175.574-.993-.399-1.488-.007-1.594-.993-.573-.174-.961-1.338-1.236-1.279 1.182-1.274.257-.578 1.918-.688 1.192-.462-1.723-1.698-.385-1.654 1.031z" fill="#131313"/><path d="M107.997 392.017l-.566-2.115-1.622-1.664-1.558-1.429.808-1.057.228-1.656 1.175-.315.652-1.014 1.118-.215.432-1.207 1.284-.848 1.029.396 1.254-.336.779.714 1.123.119.951.417.441 1.645 1.259-.002.565.856 1.144.198.901 2.109 1.58 1.508.922 2.187 1.159-.059.994.574.461 1.723 1.317-.101 1.64.484-.86 1.49-1.635-.15-.688 1.192.399 1.489-.893.742-.868-1.362-1.887-1.089-2.65-.802-1.326.691-2.888.187-.294-1.097-1.809-1.11-.516.893-1.723.462-2.163.076.331-2.524z" fill="#131313"/><path d="M121.978 411.612l-1.235-2.103-1.719-.463-2.05-1.382.06-2.283-1.445-2.887-2.258-.906-2.655-1.136-1.313-2.083-1.803-.776-.848-1.284.854-1.824 2.163-.076 1.723-.461.516-.894 1.809 1.11.294 1.097 2.888-.186 1.326-.692 2.65.802 1.887 1.089.869 1.363.748 1.226-.673.936 1.589.918-.384 1.698-1.018.273.524 1.958.712 1.404-1.278 1.182.462 1.724-1.154.393.649 1.169-1.472 1.402-.418-.308z" fill="#131313"/><path d="M122.382 411.84l1.471-1.401-.649-1.17 1.154-.393-.462-1.723 1.279-1.182-.712-1.405-.525-1.958 1.018-.273.385-1.698-.894-.516-.695-.401.672-.936-.748-1.227.892-.743-.399-1.488.689-1.192 1.635.15.86-1.49 1.807-.149 1.182 1.279 1.97.144.091 1.906 1.49.86 1.53-.242 1.935 1.581 1.291.745-.072 1.614 1.49.861 2.09.279.963 1.086 1.489.86 1.152 1.79 1.329 1.827-.516.894-2.037.545-1.719-.462-.607-1.013-1.572.085-1.075 1.631-2.82.756-.075 2.539-1.72 2.979-2.585.693-.631 1.093-1.41.377-.957-.751-1.723.462-.294-1.097-.993-.573-1.933-.322-.567-2.115-1.474-1.116zm-7.13 61.435l-1.677-.307-2.592-.9-1.334-2.161-2.097-1.873-.995-1.832.86-1.49 1.347-.613.745-1.291 1.019-.273.863 1.028 1.197 1.023 1.959-.525.984-2.279 1.28.077.42 1.567 1.306.489.571 1.19.758.637-1.723.461-.239.988.993.573.779.715-.212 1.4-1.263.927-.961.173-.86 1.49-1.128.806zm5.39 6.03l1.252 3.107 1.788 1.032 2.277-.274 1.589.917.586.935.52-1.819 1.489-.399-.116-1.06-.89-1.441-.16-2.476 1.185-.905 2.057-.467-.853-1.618-2.342-1.22-.615.837.315 1.175-.516.893-1.781.562-.459.794-1.228-.51-1.253.335-.715.78-.904.074-1.226.748z" fill="#131313"/><path d="M133.091 480.333l-.394 2.288-.671 2.195-1.195 1.495-.953-1.675-1.786.226.52-1.818 1.489-.399-.117-1.06-.889-1.441-.16-2.476 1.185-.905 1.061 1.143 1.903.833.007 1.594zm13.196-8.407l-.746 1.292.441 1.644 1.291.746 1.131 1.712.034 2.006-.009 1.849-.86 1.49.189.705-.688 1.192-1.228 4.191.735 2.741 1.529 3.2.301 2.69 1.095 3.149-2.056 1.726-1.755-.285-2.062 1.392-2.319.118-.817-1.796-1.978-2.996-.865-2.287-1.86-.677-.357-1.332-1.35-1.905-1.893-1.424.463-1.719 1.66-.697.866-1.155 1.687-.284.808-1.056 1.897.499-.003-2.518 1.157-2.577 1.528-1.501.935-.586-.766-2.229-2.078.389-1.496-1.195-1.829-1.189.207-1.734-1.145-.197-.23-.862 1.253-.336.537-.815-.68-.658.573-.993 1.38.134 1.362-.869 1.294-1.438 1.583.584.978.829 1.202.098.805 1.127.149 1.807z" fill="#131313"/><path d="M147.645 471.984l1.947-1.194 1.88-.504 1.198-2.42 1.242-1.004-.378-1.41-1.306-.489-1.332.356-.523-.699 2.603-3.132-.252-.94-.795-.459-.314-1.175-.957-.751.573-.993 1.223.176.366.741.705-.188-.179-1.296 2.157-.41.207-1.734-1.291-.746.033-2.695 1.007-.942-.08-1.238-.101-1.316-2.214.509-1.276-1.001-.66-1.838-.085-1.572-.206-1.708-1.385-.469-1.073-1.811-1.907.091-1.291-.745-.336-1.254-1.024-.061-.18 2.147-.913.665-1.291-.746-1.049.785-1.391-.803-1.361 2.128.567 2.115 1.274-.258 1.279-1.182.399 1.488-.395 2.289-1.638 2.034-2.271.609-1.527 2.76-1.259.001-.344.596-1.202-.098-.993-.573-1.503-2.788-1.337.023-1.192-.688-.357-1.332-.926-1.263-1.175.315.252.94-.516.894-1.723.461-1.129-.453-.981 1.354 1.244.255.827 1.205 1.018-.272.699-.524.728 1.149.993.573 1.718-.796 1.222.176.613 1.347 1.234.845.649 1.169 1.192.688 1.109 1.634-.348 1.521 1.161 1.2 1.291.745 1.057.809.314 1.175 1.391.802.634 1.426 1.197 1.022.609 2.272 1.583.583.978.829 1.202.098.806 1.127.305 1.766 1.28.077zm93.239-40.856l1.004 1.242 1.788 1.032 1.192.688.853 1.618 1.788 1.032-.906 2.258-.918 1.589-2.193.588-2.23.765-1.489-.86-1.224-1.435-1.019.273-.803 1.39-1.723.462-2.483-1.433-.685-.992-1.887-1.09-.672-2.506-1.589-.918-2.272.609-1.691 1.209-1.104-1.3-2.278-.984-1.954-.4-1.978 1.705-2.031.88-1.849-.008-1.784-1.957-2.122-1.026-.65 2.273-1.254.336-.419-1.567.86-1.49-1.245-1.513-1.711-2.312-1.106-2.559-1.971-1.402-2.58-.232-1.167-1.535-1.589-.917-2.245 1.021-1.41.378-.504-1.88-1.23-1.77-.215-1.117 3.525-.945.472-2.309 1.523-1.835 1.181.019.27-1.499 2.616-1.205.492-3.49 1.935-1.862 1.262-2.185-.108-2.91 1.645-.44 2.086 1.204-.86 1.49 1.27.667.92.928.614 2.606.994.574.186 2.888 1.286.411 1.688.975 1.449 1.963.588 2.193.983 1.164-.191 1.478.504 1.88-.14 1.045 1.343.312.745-1.291 1.723-.462.921.929-.228 1.656-1.477 1.067.602.679 1.081-.038.211 2.042-.459.795.734 1.482.94-.252.465.799 1.49.86 1.028-.863.631-1.092 1.165.275.665.913 1.306.49 1.338-.023 1.001-1.275.337-2.19 1.645-.44 1.88-.504 1.049-.785 1.834.264 1.018-.273 1.041 1.065-.134 1.379-1.628 1.444.492 1.211 1.018-.273.728 1.149z" fill="#131313"/><path d="M258.744 413.168l-2.632.201-1.676.953-1.945-.99-2.586-.566-2.115.566-.117 2.382 1.104 1.3-1.033 1.788 1.286.411 1.39.802 1.689.975-.918 1.589-1.41.378-2.185-1.261-2.564.771-1.534 1.166 1.377 2.318-.223 1.991-1.597.931-2.084.055-.217 2.325-.733-1.483-1.018.273-.493-1.211 1.628-1.444.135-1.379-1.041-1.065-1.019.273-1.833-.264-1.049.785-3.525.944.354-1.186 1.377-1.125-.164-1.551.681-2.785 1.019-.273-.462-1.723.87-2.08-.294-1.097 1.491-2.582 1.42-.968-.189-.705 1.603-.598.957.751 1.174-.314-.503-1.88-1.293-2.005-2.638-.132-.829.977-2.492.416-1.799-1.701-1.027-2.579-1.191-.688-.896-1.775 1.753-2.233 1.614.072 1.855.342 1.39.803.357 1.331 2.246.238.975-1.688 2.125-1.157-.315-1.175.587-2.508.072-1.615-.833-1.54 1.185-.905 1.939.656.821.871 1.969.144.524.7 1.373-.2 1.689.974.917-1.589 1.62.406 1.39.803 1.292.745.666 2.172.985 2.423-.542 1.74-1.723.462-.745 1.291 1.052 1.733-.688 1.192-1.332.357-.035 1.436 1.49.86 1.274-.257.487.877 1.958-.525 1.308 1.749-1.089 1.887.158 1.217zm64.223 2.185l-1.204 2.086-2.532 1.518-2.014 1.883-1.516-1.273-1.842 1.585-1.723.462-.087-2.831 2.056-1.727-.378-1.41-1.958.525-2.096-.614-.803 1.391-2.126-.102-.003-2.518-1.788-1.032-1.643 1.699-2.361-.039-1.01-1.576.917-1.589-.504-1.88.093-1.536-1.455-2.297-1.678-.306-.314-1.175.233-1.322.746-1.291-.357-1.331.741-.367.746-1.291.118-1.123-.461-1.724 1.835-3.178 1.796-.817.516-.894-.336-1.253-1.698-.385-.785-1.049-1.192-.688-1.521-.348-.293-1.097 1.356-1.203-1.25-1.847-.263-1.609.99-1.944.39-1.364 1.215-1.417 1.987 1.146-.688 1.192.314 1.175 1.458.113 1.87.087 1.244.254 1.463.448 2.037-.546.453-1.129 1.954.4 1.614.071 2.35-.629 1.706-1.465 1.147-1.986.526-1.484.565.856-.212 1.4-.27 1.499.546 2.037 1.489.86.359 2.591 1.705 1.977 1.088 1.556.672 2.506.609 2.272-1.147 1.986.607 1.013.399 1.488-.574.993-1.556-.17-1.107.884-1.292 2.697-.362 3.036 1.414 3.398.546 2.037 1.291.746.315 1.174-.803 1.391-.274 2.424z" fill="#131313"/><path d="M335.301 421.282l-1.391-.803-1.825-2.114-1.59-.917-1.912-.243-.482-1.802 1.41-.378.755-1.881-.848-1.284-1.802.482-1.089 1.888-2.094.645-1.546.498.232-2.581.803-1.391-.315-1.175-1.291-.745-.546-2.037-1.414-3.399.362-3.035 1.292-2.697 1.106-.884 1.557.17.574-.993-.399-1.488-.607-1.013 1.147-1.986-1.281-4.778 2.341-.04 1.489.86 2.429-.65 2.768-.322 2.586.566 2.957.383 2.086 1.204 1.688.975 2.693 2.217 4.309-1.154 2.353 1.888 2.036-.546 2.182-1.256 1.032-1.788 1.422.291 1.063 2.401.504 1.88.993.574-.688 1.192 1.39.802.918-1.589.932-1.845 2.549-.515 1.195 3.206 1.083 1.221 1.346 2.83.741 4.335 1.757 1.544-2.786 2.761-1.958.525-1.059 1.375-1.541-.426-.975 1.688-1.49-.86-1.376 2.384-.253 2.502-1.164.984-1.856-1.602-1.097.294-1.218-1.101-.378-1.41-2.285-1.319-1.191-.688-2.016.624-2.646 1.717-2.311 2.97-3.212.86-1.748 1.308-1.341.947-1.391-.802-.453 1.128-1.215 1.418zm70.796 20.155l-2.203 1.178-1.204 2.085-2.997.72-2.129 2.081-.918 1.589-3.024.307-1.26-1.258-1.622-1.664-1.094-1.89-1.146 1.987-2.312 1.711-2.56-.154-2.894-.148-.63-2.35-2.451-.687-1.266-1.591-2.017-.635-1.021-2.245 1.916-.681-.462-1.724-1.092-.631-1.689-.974.688-1.192 1.926-1.272 2.333-1.632 1.724-.462 1.699-3.058-.441-1.645.86-1.49 2.195.671.604-1.505 1.019-.273.468-1.385-1.39-.802.442-1.798 1.356-1.203 2.42 1.199 1.959-.525 1.954.4.94-.252.561 1.781-.918 1.589-1.089 1.887.994 1.832-.688 1.192 2.583 1.491 1.566-.42.416-2.21 1.018-.273.922 2.188 1.293 2.004 2.88 1.663 2.263 1.241-.092 1.535-1.54.833-.573.993 1.887 1.09.44 1.645 1.396 1.137z" fill="#131313"/><path d="M373.328 440.394l-1.746-.875-2.09-.28-1.589-.917-2.506.671-.918 1.589-2.401 1.064-1.291-.746-2.089.98-1.49-.86-1.39-.803-.399-1.489-1.432-.959-1.441.89-.488 2.565-2.088.98-1.946-2.25-1.314-2.082-1.162-2.459-2.521-2.515-.63-2.35-1.965-1.069-.882-3.289-2.245-3.681-2.185-1.261 1.028-.863.703-1.448 1.391.803 3.089-2.255 3.29-.882 2.311-2.97 2.646-1.716 2.016-.624 3.476 2.007.378 1.41 1.218 1.1 1.097-.293 1.856 1.601 1.164-.983.253-2.503 1.376-2.384 1.49.861.975-1.689 1.541.427 1.059-1.376 1.958-.524 2.787-2.762 1.783 1.957 1.802-.483 1.904 2.093 1.39.803.896 1.775 1.818.52 1.488-.399.435 1.311-1.299 1.103 1.522 1.607.42 1.567 1.067 1.477-1.356 1.203-.442 1.798 1.39.803-.468 1.384-1.019.273-.604 1.505-2.195-.671-.86 1.49.399 1.488-.803 1.391-.896 1.667-1.723.462-2.333 1.632-1.927 1.272-.688 1.192 1.689.975 1.092.631.462 1.723-1.838.66zm75.105-33.977l-1.147 1.987-.581 2.842-.975 1.689.301 2.69 1.652 1.152.588 2.193 2.185 1.262.629 2.35-1.93 2.196-1.663 2.88-1.88.504-2.898.777-2.852.008-2.616 1.205-2.126-.102-3.171-.242-1.986-1.147-2.384-1.376-2.461-.096-2.369 1.81-2.185-1.261-2.367-.374-1.261 2.185-2.194.588-.138 2.304-2.585.692-2.723 2.997-1.434 2.483-1.958.525.175 2.22-1.161-1.201-.441-1.645-1.887-1.089.574-.993 1.54-.833.092-1.536-2.263-1.24-2.881-1.663-1.292-2.004-.922-2.188.63-1.093 1.85.009 2-.368 1.376-2.384-.588-2.193 1.821-1.664 2.185 1.262 2.482.175 2.272-.609 2.309.472 1.567-.419 1.884-1.429 2.226-3.283 1.947-1.193-.671-2.507 1.089-1.887-.441-1.645 2.104-1.235-.339-3.771.688-1.192 2.711-.223 1.377-2.383 2.214-.51.631-1.092 1.201.098.213-1.401 1.801-.482 1.782.697 2.356-.295 2.363 1.298 1.421.291 2.193-.588.631-1.092 1.291.745.993.573-.86 1.49.462 1.724-.803 1.39.853 1.618 1.192.688.582 1.859zm160.792-80.444l-.86 1.49-2.439-.018-2.006.033-2.794 1.169-2.663.713-.803 1.391-2.682 1.894-3.145.171-1.904-2.093-1.788-1.032s-1.996-.556-2.101-.948c-.105-.392-2.383-1.376-2.383-1.376l-2.455.238-1.648-2.077-2.755-1.193-1.986-1.147-2.361-.039-1.35-1.905-2.189-.337-1.49-.86-4.1.679-2.115.566-2.014 1.883-3.103.328-2.061 1.392-2.507.671-2.696 3.41-1.147 1.986-2.082-2.129-.962-1.085-1.724.462-1.036-1.989-1.198-1.023 1.258-1.26-.189-.705-.784.21-1.709-1.054-1.139.138-.436-2.57-.942-1.007-1.229-1.769-1.777-.364-.755 1.882-1.301-.156-.54-1.702-.993-.573-1.259.001-.918 1.589-.228 1.656-2.183-.002-.963-1.086.777-1.803-1.02-.986-1.206.827-1.849-.008-1.49-.86-.315-1.175 1.262-2.185 1.517-2.17 1.959-.525.63-1.092 1.391.803 1.572-.086.516-.894 1.958-.524 1.057.808s1.295-.179 1.253-.336c-.042-.157-.007-1.593-.007-1.593l2.632-.202.631-1.092 1.697-.875 1.855.343 2.681 1.548 1.456-1.146 1.676-.952.489-1.307 1.5.27.745-1.291 1.097-.294 1.291.745 2.867-4.966 2.199-.253-.357-1.332 2.391-1.731 2.063-.134s1.565-1.678 1.622-1.778c.058-.099-.702-1.994-.702-1.994l2.687-2.819 2.383-3.325.909.26 1.086-.963.719-1.703 1.503-.655 1.033-1.788 1.717-.796 2.075.536-.244 1.912s.514 1.289.436 1.31c-.079.021-.792 2.06-.792 2.06l.819 3.054-.726.111-.192 1.479 1.579 1.507.357 1.332-.986 1.02-.264 1.834 1.652 1.152 2.512-.337.652-1.014 1.441-.89 3.749 3.025.881-1.411 1.274-.258 1.088-3.146 1.691-1.209.459-.794-.895-1.775.05-1.693 1.853-.916.746-1.291.592-2.174 1.838-.66 2.185 1.261 1.268 2.851 2.137.77-.054 2.618-2.897 2.035-1.744.383-.489 1.307 2.582 1.491.435 1.311-1.277 2.441.542 2.961-1.304 2.028.279 1.353-.891 2.002 1.658 1.486-.479 1.975 1.462 3.89 1.391.803 1.018-.273 1.559 1.43.63-1.093 2.257-.352.811 1.461 2.237.828.534 1.368.925.004 1.327.568.708 2.329-.835.643.89 1.441-.155 1.301.823 2.13-2.419.061z" fill="#131313"/><path d="M629.047 311.26l-2.014 1.883-.102 2.127-.874 3.004-1.193 2.755 1.455 2.296-1.653 2.29-1.8 1.742-1.634 1.109.013 1.928-1.88.504-2.174-.593-1.536-.092-.608-2.272-1.945-.99-1.589-.918-.823-2.13.156-1.301-.89-1.441.835-.643 1.081-.038.578-1.918.688-1.192-.724-2.073 1.582-.675 1.808-.149 1.977-1.705 1.855.343 2.588 1.825.792-2.059s2.459-1.163 2.573-1.362c.115-.198.515-2.152.515-2.152l1.974-.781 1.534-1.167.284 1.687.795.459.079 1.238-1.723.461zm23.267-13.124l1.873 2.604 1.644 3.002 1.403 2.73 1.655 3.671 1.008 3.76-.102 2.126 1.028 3.838 1.281 4.778.339 3.771 1.613 3.514 1.045 4.841.609 2.272-1.077 3.814-.519 3.078-.753 3.14-1.254.336-2.233 1.69-1.801 1.742-1.577-.249-.357-1.332-.993-.573-.322 1.933.483 1.801-1.093-.63-1.589-.918.273 1.019.28 2.611.853 1.618-.023 2.106-.631 1.092.273 1.018.42 1.567-1.901.425-.994-.573.097-2.46.545-2.665-.525-1.959-1.648-2.077-2.681-1.548-1.391-.803-1.47-2.04-2.384-1.377-1.969-.143-.603-1.938.917-1.589.803-1.39-.525-1.959 1.032-1.787 1.357-1.203 1.792.107 1.032-1.788.379-2.032-2.238-2.087.216-2.325-1.606-1.92-.843-2.209-1.914-1.502-.028-1.672-1.6-1.586 1.895-.759-.231-.862-1.39-.803-.269-1.943 1.093-2.811 1.515.013.497.287 1.311-.435.281-.831 2.12-.232-.011-.669 1.953-.859 1.042-2.378-.756-2.82-1.259.002-.127-1.729 2.119-1.492.249-1.577-.29-2.022-1.287-1.67-.847-.025-.29 1.421-1.603.598-.848-1.284-1.865.247-.67-1.247 1.518-2.17-.03-2.93 1.133-.472 1.704.719 1.39.803 1.389-.456.963 1.085-.197 1.144 2.059.792 1.267-1.851.866 3.546zm-62.512-165.6l1.589.917.86 3.212 1.648 2.077 1.243 3.697-.097 2.46-1.308-1.748-2.032-.379.672 2.507-1.887-1.09-1.292-.745-1.245-1.514-3.434-1.85 1.371 1.983-.154 2.56-2.663.714.42 1.566.02 3.521-.761 1.547 1.254 4.366 2.116.692.421 2.826 2.537 2.259.797 2.976 1.598 3.77 2.086 1.204.482 1.802 1.788 1.032 1.191-.571.902-1.333.63-1.093 1.489-.399.425 1.901-1.441.89.714 2.663-2.851 1.268 1.629 3.258.085 1.572-1.67 1.287.567 2.115-.201 2.069s-2.203 1.178-1.859.582c.344-.596-1.093-.631-1.093-.631l-.336-1.253.056-1.359 1.498-.989-.993-.573-1.613 1.188-1.796.817.231.861-2.599 2.208-.948 2.101-1.461.811-.918 1.59-.071 1.614.974 1.754 1.39.803-.875 1.745-2.325-.216 1.193 1.947-1.147 1.986-1.074 1.631-.89-1.44-2.781-1.606-1.175.315-.651 1.014-1.343-.312-1.744.384-1.006 2.2-1.311.435-1.537-1.351-.567-2.115 1.607-1.522-2.034-1.638-.398-1.488-1.458-.113-2.649-.802-1.521-.348-3.823.773-1.407 2.895-1.587.342-.191-1.964-1.887-1.09-.706-1.07-1.689-.974-2.664-.546-1.005-1.242-2.233-1.752-.314-1.175-.889-.182-.133-2.063.688-1.192-1.64-.484-.149-1.807 2.312-1.711-.252-.94 1.98-.446-.745-2.152-1.614-.071-1.375-1.059.938-1.51 1.254-.336-.42-1.567 1.022-1.197-.293-1.097 1.461-.811 1.234.844 1.29-.513.327-1.599-.806-1.127.744-2.55.092-1.536 1.269-.592-.336-1.253-1.188-1.613-1.897-.499-1.986-1.147-1.164-3.718-1.698-.385-1.396-1.137-.441-1.645 1.112-.549-.989-1.499-1.771-.029-.086-1.572 1.535-1.167-.462-1.723.574-.993 1.958-.525-.389-2.079 2.506-.671.746-1.291-1.173-1.869.421-1.876-1.699-1.643 1.941-1.528 1.291.746 1.637 1.408 1.645-.441 1.748-1.308.291-1.421 2.163-.076 2.287-.864 1.338-3.465 3.259-.37 2.262-4.72 2.569-.436.351.997.795.459-.092 1.536 2.622.388.713 1.405 2.224-1.1 1.266 1.592 1.833.264.436 1.311 1.589.917 1.383-.79 1.723-.462.629 1.091 1.096-.294 1.035.73-.039 2.361.862-.231.432-1.207.894.516.357 1.332 2.22-.175zm-417.95 150.945l-.244.653.836.615.573-.993-1.165-.275zm117.931-125.12l-.72.444.836.615.21.783 1.018-.272-.378-1.41-.966-.16zm-33.62 103.873l-1.018.273-1.537-1.351-.522.559-2.363-1.297-1.829-1.189.107-1.792 1.284-.848.318-1.008-1.229-.511-.509-2.214-.669.011-1.067-1.477-1.353.279-1.516-1.273-.133-2.063.885-2.337 1.765-.305.717.48.689.067-.08-1.238 1.869-1.172 1.183-2.164-1.411-.881 1.158-1.318 1.813.186.113-1.458-.357-1.331 2.037-.546 1.291.745.745-1.291-.016-1.003 2.145-1.078-.993-.574-2.147-.18-.189-.705 2.104-1.235 2.182-1.257.86-1.489 1.566-.42-.293-1.097 2.172-.666-1.49-.86 1.859-.582.894.516-.561-1.781.688-1.191-1.333-.903.354-1.186 1.39.803 1.332-.357-.357-1.331 2.147.18.725-1.37.703-1.447 1.253-.336 1.921-1.606 1.713.128 2.272-.608 1.089-1.888 1.766-.305 1.098.965 1.88-.503 1.171.61 1.519-.911 2.271-.609 1.09-1.887 1.471-1.402 2.098-1.569 2.193-.588 1.778 1.622.588 2.194-1.418 2.227-1.283 2.106-2.229.766-2.328 1.967-2.659-.211-.86 1.489-2.841.678-3.681.986-.954 1.767-2.82.756-1.722 1.72 1.005 1.242-1.264.926-1.765.306-1.566.419.116 1.061-1.771-.03.441 1.645-1.33 1.616-1.059 1.375-.42-1.567-.824 1.313.718 1.738-1.097.294-.993-.573.231.861.357 1.332-.993-.573-.746 1.291-.631 1.092-1.175.315-.546 1.406-.651 2.273-1.88.504-1.23 1.673.461 1.723-1.398 1.047-.066 1.948-.917 1.589.608 2.272-.186 1.813 1.413 2.14-.075 2.539 1.438 1.293.911 1.519-.402.696-1.377 1.124-.315-1.175-1.521-.348zm35.084-97.468l-.338.931-1.854.916-1.064 1.041 1.066.218-.197 1.144.846.025 1.645-.441.975-1.688.688-1.192-.712-1.404-1.055.45zm-6.545.326l-.286.496.993.573 1.262-.926-.315-1.174-.783.21-.871.821zm-.391 2.622l-1.432-.959-.574.993-.312 1.343.399 1.488 1.317-.1.544.777 1.461-.811.746-1.291.573-.994.056-1.358-1.097.294-1.681.618zm-3.076 6.371l-.343.596.251.939 1.018-.272.077-1.28-1.003.017zm-3.043-3.213l-.695-.402-1.645.441.294 1.097-.631 1.092.696.402 1.696-.875.894.516 1.462-.811.197-1.144 1.202.098-.984-1.164-1.291-.746-1.195 1.496zm4.887-14.662l-.239.987.993.573.573-.992-1.327-.568zm-1.099 2.475l-1.175.315.356 1.332 1.59.917.272 1.018.95-.842-1.083-1.221-.91-1.519zm-6.391 5.917l-1.018.273-.172.297 1.092.631.098-1.201zm1.319 1.49l-.516.894.914.594.762-.288-1.16-1.2zm-.171-3.482l.252.939 1.018-.272-.529-1.034-.741.367zm2.138 2.031l.231.861.861-.231-.893-.516-.199-.114zm1.303 1.75l.496.287.516-.894-1.012.607zm.049-4.211l.272 1.018.883-.153-.294-1.096-.861.231zm-1.899-1.758l.8.793.344-.596-.596-.344-.548.147zm-7.952 8.848l-.401.696 1.192.688 1.096-.294-.482-1.802-1.036-.73-.369 1.442zm2.108-1.825l.665.913.783-.209-.231-.862-1.217.158zm-5.746-4.846l-.573.993.21.784-.631 1.092-1.782-.698-1.064 1.041.23.862-1.86-.677-1.049.785.874 1.696.992-.685.315 1.175 1.259-.002.803-1.39 1.32-1.026 1.358.056 1.88-.504.975-1.688-1.589-.917.631-1.093-1.72-.463-.579.659zm-4.727-.744l-1.645.441-1.192-.688-.348 1.521 1.092.63.586.935 1.77-1.23.894.516 1.106-.884.695.401-.294-1.096-1.092-.631-.784.21-.788-.125zm3.584 7.438l-.626.168.486.877 1.352-.279-1.212-.766zm.758 1.893l-.516.894.695.401 1.337-.023-.993-.573-.523-.699zm2.842-11.006l.252.939.783-.21.573-.992-1.608.263zm-64.017 126.718l-1.261 2.185-.834 1.902-.587-2.193 1.032-1.788-2.416-2.123-1.49-.86-1.801.483-2.433 1.575-2.686-.624-2.604 1.874-3.181.348.845 3.468-1.345 1.871 1.167 1.535-.631 1.092-3.051-.106-1.705-1.978-2.185-1.261-1.325-2.751-1.823-4.297-1.723.461-1.241 2.264.462 1.723.352 2.256 1.59.918.201 2.632-2.024 2.474-2.781-1.606-2.582-1.491-.38.774-.469 1.384-1.207-.432-.344.596-1.056-.808-.438.873.498 1.545-.249 1.578-1.085.963-.176 1.222.436 2.57 2.384 1.376-.238 2.247-1.519.91.592 1.269.107 1.651-1.434 2.483-.663.345-.552 1.072-.67 3.453.487.877-.574.994 1.283 2.594 1.364.39.336 1.254 1.777.363.664.914.732.223 1.191.688 1.019-.272 1.092.63.686.992 1.979-.446 1.593-.008.894.517 1.337-.023.806 1.127 1.49.861.93.338.273 1.018.946.083 1.723-.462-.168-.627.846.025 1.097-.293.336 1.253.815.537.627-.168.21.783 1.343.312.993.574.745-1.292.083-.945 1.222.176 1.12 1.043-.631 1.093 1.343.312.168.626.861-.23 1.223.176-.344.596.878.772.795.458.845-1.233.846.025.779.714.497.287 1.191.688-.019 1.181.988.239 1.169-.649-.267-.684.924.004 1.567-.42.445.72 1.081-.037.589-1.25.808-1.056.484-1.641-1.39-.802.573-.994.965-1.098-.074-.903 1.315-1.36.974-1.689.757-.622.918-1.589-1.093-.631-.89-1.441-.892.743-.795-.459-.861.231-1.191.571-.212 1.4-.69-.067-.525 1.484-1.093-.63-1.024-.062-1.144-.197-.619-1.681 1.008-.942-.529-1.033.344-.596.14-1.045 1.091-.628 1.493-.065-.016-1.003-.655-1.503-.894-.516-.007-1.594 1.101-1.218-.378-1.41.014-1.515-1.292-.745-1.417-1.216-.314-1.175-.592-1.269 1.253-.335 1.683.64 1.28.077 1.092.631 1.808-.149 1.64.484 1.987 1.147.733 1.483 1.007-.942 1.206-.827 1.186.354 1.337-.022 1.526.682.862-.231.794.459.631-1.092.442-1.798-.993-.573-.67-1.248.27-1.5-.722-.814-1.391-.802-.622-.757.63-1.093.517-.894-.189-.704.516-.894.149-1.636.803-1.39-.993-.573-2.111-.358-.067.689-1.555 1.089-1.024-.062-1.553-1.095-1.093-.631-.853-1.618-1.986-1.147-1.177-.944-1.115-1.968-1.224-1.435-1.114-.709zm407.612-41.641l-.663.345-.947-1.341-.336-1.253 2.361.039 1.243.254 1.005 1.242 1.49.86 2.22-.175.926 1.263 2.848.916 1.253-.335 1.417 1.215 1.491 2.119 1.689.975 3.199 1.913 1.75-.049 2.502.253 2.619 1.313 3.339.869 2.321 1.141 2.842.582 2.451.686 1.704.719 2.68.289-.02 1.181-.63 1.092-1.498.989-1.254.336.796 1.718.023 1.337.273 1.019 2.097 1.872s1.829 1.189 1.579 1.508c-.172.298.792 2.642.792 2.642l1.391.803 2.185 1.262 1.74.541 2.193-.588 1.589.918 1.488-.399 1.225 1.435 1.9-.425.861-1.49 2.351.629 1.595 1.252s.664.913.273 1.018c-.392.105-3.036-.362-3.036-.362l-.745 1.291-2.194.588-.243 1.912.854 1.618 1.787 1.033 1.627 1.998-1.116 1.475-1.474-1.116-1.887-1.09-3.236-1.735-.441-1.645-2.185-1.262-2.085-1.204-1.496-1.195-2.123-2.285-2.164-1.183-2.075-.536-1.87-.086-2.307-2.656-4.387-3.526-3.277-1.893-2.682-1.548-2.573-2.081-1.699-1.644-3.689-.606-2.879-.404-1.608.263-2.793-2.275-.335-1.253-2.802-1.684-1.763-1.878-2.638-.133.165-1.891-.336-1.253 2.126.102-.148-1.808-1.49-.86-.168-.626-1.49-.861-1.478-.191zm84.638 25.424l.796 1.717.618 1.681.768.047-.378-1.41.255-1.244-.42-1.567-1.639.776zm6.15-.556l.21.783 1.264.333-.336-1.253-1.138.137zm-5.391-6.026l1.123.118-.065-1.493-1.282-2.595.688-1.192-.682-1.916-1.593.007.217 2.376.695.402-.029 1.771.928 2.522zm-.46-12.048l-.286.497.712 1.404.432-1.207-.858-.694zm-.391-5.519l-.196-2.299-1.005-1.242-.085-1.572.86-1.49.733 1.483.206 1.708.817 1.796-.249 1.578-1.081.038zm-3.948-19.43l.504 1.88.42 1.566 1.175-.314-.712-1.405-.252-.94-.294-1.096-.841.309z" fill="#131313"/><path d="M629.017 178.612s1.387 1.727 1.883 2.014l3.146 1.088 3.141.754 4.565.12 2.064-.133 2.116.692 1.495 1.194 4.285.951 3.668.529 3.866.643 2.284 1.319 1.959-.525 1.787 1.032 2.054.457 2.898-.776 1.496 1.194-.525-1.958-1.184-2.537-2.13-3.879-1.253-3.107-2.362-1.298-3.278-1.892-1.912-.243-1.984-3.331.301-2.011-.483-1.802 2.109-.901-.252-.94-3.087.072-.779-.715-1.891-.165-2.777-2.53-1.775-3.806.43-2.466 1.43-1.558.965-1.099-1.188-1.612-2.378-1.042-3.263 1.294-1.788-1.032-1.928.013-3.038-2.88-1.256-2.182 1.79-1.152.28-2.089-2.483-1.434-1.645.441-.746 1.291-2.732.144-3.067-1.109-1.079-2.145-3.277-1.893-.307 1.677-.688 1.192.231.862 1.245 1.513-2.741.735-2.086-1.204-3.119-.676-.902-2.109-1.126-2.637-2.383-1.376-1.788-1.032-1.49-.86-2.16-2.108.803-1.39-.693-2.585 1.175-.315 1.319-2.284-2.032-.379-.504-1.88-1.873-2.605 1.154-.393 1.787 1.032 2.111.358-.42-1.566-2.415-2.124-.399-1.488.048-2.951-1.39-.803 1.317-3.543.456-3.313 2.297-1.455 2.032.379 1.325-1.95-1.391-.803-2.227-1.418-2.088-3.722-.777-2.898-2.342-1.22-1.837-2.782-1.33-3.085-1.648-2.078-1.361-2.573-.677 1.86-1.682.619-1.589-.918-1.362.869.202 2.632-.034 2.696-.879 2.67s1.092.631 1.218 1.101c.126.47-.2 3.328-.2 3.328l-.43 2.466-1.372 1.459-1.391-.803-1.362.869-.975 1.689-1.639.775-.943 2.435-1.49-.86-1.067-1.477-1.203-1.357-1.094-1.89-1.358-.056-1.409 1.637-.745 1.291-1.578-.248-2.245 1.021.869 1.362-.469 1.385-1.102-.04-2.161 1.334.462 1.724-.887 1.077-.081 2.204-1.687.284-1.56 2.013.894.516-.745 1.292-1.414 1.302-.379 2.032.462 1.724.915.594 2.569-.436.351.997.795.459-.092 1.535 2.622.389.713 1.404 2.224-1.099 1.266 1.592 1.833.264s.352.997.436 1.31c.084.314 1.589.918 1.589.918l1.383-.791 1.723-.461.628 1.091 1.097-.294 1.035.73-.039 2.361.862-.231.432-1.207.894.516.357 1.332 2.099-.311.584-1.583.882-.153-.101-1.316-1.958.524-2.086-1.204-2.185-1.261-1.469-.782.207-1.735-.566-2.115 1.878-1.762 1.147-1.987.794.459-1.397 2.305.609 2.272 2.451.687 1.892 1.423 1.49.861 1.379.134 1.254-.336 1.925 2.171 1.489.86.462 1.723.378 1.41-.075 2.539.603 1.937 1.448.704 2.161 3.366 1.69 2.234 1.68 2.824 1.665 3.08 2.552 2.003 2.161 3.367 1.331 3.085 1.815 2.704-.573.993-.631 1.093 1.381 1.393-.306 1.677-.631 1.093.231.861 1.906-.091 2.353 1.888.922 2.188 1.788 1.032.567 2.115 2.525 1.59 3.533 1.908z" fill="#131313"/><path d="M613.718 129.655l.503 1.88.305 1.765 1.208.432.935.673.499 1.545 1.556.171-.733-1.483-.941-1.007.102-2.126-.651-2.428-1.834-.264-.949.842zm35.78.062l-1.07.706.963 1.086 2.036-.546 2.037-.546.917-1.589-1.792-.107-1.456 1.145-1.635-.149zm22.912 61.7l-.129 1.713-.573.993 1.192.688.863 1.029.263 1.608.446 1.979 1.192.688.872-.821-.546-2.036.688-1.192-1.167-1.535-1.49-.86-.341-1.587-1.27-.667zm7.27 12.403l.335 1.253.967.161.416-.951-1.718-.463zm-24.097-80.52l-.886 1.077.794.459.574-.993.573-.993-1.055.45zM597.31 81.577l-.965-3.603-1.566-3.023-2.416-2.123.574-.993-2.77-.937.396-1.03 2.115-.566.519-3.078 1.748-1.308-.567-2.115-1.788-1.032-1.245-1.513-1.251 1.594-1.328-.567-1.19.57-.746 1.292-1.801.482-.218 1.066-1.802.483-.378-1.41-2.172.666-1.112.55-1.509.32-.354 1.186-.918 1.59-2.094.645-.944 1.176.504 1.88-1.127.806-1.291-.746 1.062-2.3-1.096.294L570.045 71l.286-1.755 1.884-1.429 1.488-.398.874-3.005-1-2.167-1.56-2.688-2.086-1.204-1.986-1.147-.631 1.092-.582-1.859-1.489.4-2.025 1.214-1.688-.975-.357-1.332-1.807.148.458-.794.757-.623-.993-.573-.095-.982 1.186.354 1.327.568 1.88-.504.981-1.354 1.526.682 1.204-2.085-.671-2.507-1.183-1.278 1.052-2.969 1.88-.503 1.656.227 1.926-1.271.467-2.644 1.506-2.838 2.209-.844.169-2.816-1.849-.008-.21-.783 2.115-.567-1.125-1.378-.336-1.253-.64 1.683-1.013.607-1.778-1.623-2.284-1.318.273 1.018-2.581-.232-.803 1.39-1.885.17 1.872-2.097-.587-2.194s.144-1.969-.315-1.174c-.459.794-1.947 1.193-1.947 1.193l.488-2.566-1.291-.745-1.548-.76s.018-2.44-.461-1.724c-.48.716-2.056 1.726-2.056 1.726l-1.13 2.99-.705.189-2.119 1.49-1.033 1.788-.64 1.683.248 1.865-1.118.215.231.862 1.672-.028-1.545 1.757-.144 1.97 1.928-.013 2.805-.5 2.224-1.1.314 1.175-2.014 1.883-.975 1.689-2.456-1.021-2.083 1.314-1.986-1.147-1.2 1.16-1.92 1.607-1.298 2.362-3.096 1.921-1.109 3.068-2.233 1.69-1.491 2.582-1.434 2.483-1.779 1.82-2.641 2.051-1.147 1.986-2.465 4.271-2.279 3.717-.006 3.108-1.052 2.969-.144 1.97 1.088 1.554-1.096.294-1.336 1.282.332 2.178-1.571 1.344.034 2.006.294 1.097 1.958-.525 1.004 1.242 2.402-1.064 3.767.586 1.16-.058 1.046 1.398-.05 1.693-1.833.994-1.92 1.606-1.399 1.047-2.271.609-1.887-1.09 1.032-1.788-2.384-1.376-.745 1.291-.572 2.252 1.934 1.58-.076 1.28 1.291.746.003 2.518-2.024 2.473.525 1.959-.918 1.589-1.488.398-.4 1.955.882 3.289 1.077.887 2.559.154 2.022-.29.806 1.128 1.99.222 2.259 2.165-1.617 2.112-.31 2.602.525 1.958-1.08 1.297.546 2.037-.671 2.194 1.308 1.749 1.797.442.609 2.271 2.042-.211 2.09.28 1.848-1.251 1.645-.441 1.489.86 1.585 1.842 1.097-.294 1.941-1.527 1.291.745 1.637 1.409 1.645-.441 1.749-1.308.29-1.421 2.163-.076 2.287-.865 1.338-3.465 3.259-.369 1.033-1.788 1.229-2.932-.915-.594-.462-1.724.379-2.032 1.414-1.303.746-1.291-.894-.516.344-.596 1.215-1.417 1.687-.284-.033-2.006 1.058-1.375-.462-1.723 2.162-1.335 1.102.041.468-1.385-.869-1.363 2.245-1.021 1.578.249.746-1.291 1.408-1.637 1.359.056 1.094 1.89 1.203 1.356 1.067 1.477 1.49.861.942-2.436 1.64-.775.975-1.688 1.362-.87 1.39.804 1.372-1.46.431-2.465.2-3.328-1.219-1.101.88-2.67.033-2.696-.201-2.632 1.362-.87 1.589.918 1.681-.618.656-1.939zm-82.987-31.156l-.867-.103-.516.894-1.279 1.182-.917 1.589.645 2.094-.402.695.697 1.66 1.396 1.137 1.648 2.078 1.651-.107.802-1.39.385-1.699-1.114-.709.828-2.236-.78-1.974-.651-2.428-1.526-.683zM58.609 318.612l1.65-.106 1.227-.749.218-1.066 1.217-.158 1.39.803.499 1.545 1.024.062.471 1.133 1.473-.143.02-1.18-.994-.574.46-.794.496.286 1.625.74.462 1.723.242 1.531 1.12 1.043.93.338.837 1.875-.306 1.677-2.849 2.526-6.608-4.609-4.604-5.903zm55.652 46.629l-1.338-1.236 1.247-.671 1.033-1.787 1.331-.357 1.291.745.628 1.091 1.452-.221.344-.596.847.025 1.604.662 1.044-1.119 1.41-.378 1.696-.874 1.515.013 1.161 1.2 1.192.689 1.645-.441.942 1.007.92.929-.432 1.207-.276 1.165.399 1.488-1.215 1.417-1.662-.562-.401.695.293 1.097-1.268.592-1.49-.86-1.165-.276-1.598.932-.63 1.093-.946-.083-.906 2.258-2.424-.274-1.567.42-1.536-.093-.613-1.347-1.192-.688-.314-1.175.573-.993-.399-1.488-.007-1.593-.993-.574-.195-1.039zm30.373-28.881l.516-.894-.164-1.551-1.799-1.701-1.557-.171.161-.966.291-1.421-.947-1.342-.634-1.425-.993-.573-1.28-.077.291-1.421-.315-1.175-1.4-.213-.472-1.133-1.431.3-.631 1.092-1.453-1.038-.379-2.669-.925-.004-1.291-.745-.73 1.035-.956.508-1.734-.207-1.609.263-2.271.609-1.083-1.221-.757.622-.516.894-1.374.2-1.602.598-.574.993.336 1.253-.516.894.523.699 1.228.511-.092 1.536-1.164.983-.745 1.291-.736.701.378 1.41-.736.701-.573.993 1.092.631.963 1.085 1.092.631 1.88-.504 1.093.631 1.467-.477 1.364.39 2.115-.566 1.39.802 1.452-.221.631-1.092 1.645-.441.803-1.391 1.331-.356 1.244.254.993.574.77 1.305 1.41-.378 1.254.923 1.254-.336.004-.925 1.092.631 1.5.27 1.876.421z" fill="#131313"/><path d="M133.335 350.896l.336 1.254.569-.069.451 1.055 1.488-.399 1.008.317 1.443.37 1.566-.42 1.291.745 1.645-.441 1.542.427 1.358.056.881-1.412 1.623-1.778-1.125-1.377-.252-.94.803-1.391-.932-1.597.213-1.4 1.41-.378.08-2.205 1.728-1.386-.525-1.958.108-1.792-1.536-.092-1.483.733-1.301-.155-1.008-.318s-1.343-.312-1.578-.249c-.235.063-1.735-.207-1.735-.207l-1.092-.63-.004.924-1.254.336-1.254-.923-1.41.378s-.457-1.389-.77-1.305c-.313.084-.993-.574-.993-.574l-1.244-.254-1.41.378-.802 1.39-1.645.441-.631 1.092-1.452.221-1.39-.802-2.115.566-1.364-.39-1.468.477-1.092-.63-1.723.461-1.093-.63-.962-1.086-1.231 1.673.179 1.296-.631 1.092.332 2.178-.234 1.322-.353 1.186-1.41.378-.165 1.891.324.585 1.542.426.937 1.932 1.589.917 1.542.427 1.192.688 2.084-.055 1.441-.89 1.849.009.273 1.018.993.573 1.182 1.279 1.327.568.921.928.417-.951 1.175-.315.489-1.306 1.336-1.282z" fill="#131313"/><path d="M147.103 364.998l-.722-.814-.335-1.253-1.045-.14-.827-1.206.866-1.155-.435-1.311.573-.993.056-1.358.95-.842s-.686-.992-.65-1.17c.037-.177.474-1.05.474-1.05l-1.358-.056-1.541-.427-1.645.441-1.291-.745-1.567.42-1.442-.37-1.009-.317-1.488.399-.451-1.055-.569.069-.336-1.254-1.398 1.047-.49 1.306-1.175.315-.417.951-.029 1.771-1.592 1.266-.974 1.689-.411 1.285 1.514.014.963 1.085 1.312.824 1.645-.44.941 1.007.921.928-.687 2.451.399 1.488 1.24 1.179 1.316-.1.294 1.096-.056 1.358.727 1.149-.029 1.771.514 1.289 1.425-.633-.038-1.082 1.19-.571.497.287 1.781-.561.401-.695 1.651-.107 1.023.062.956-.508.344-.596 1.196-.236 1.175-.315-.378-1.41.543-.481.04-1.103-.347-1.922-.993-.573-1.202-.098zm-6.278-3.691l-.396 1.03.508.955-1.331.357-.497-.287-.497-.286-.516.893-.997.352.098-1.202-.231-.862-.273-1.018.726-.11.375-1.108-.382-.486.48-.716.798-.466.168.627.481.543.042.156 1.045.14.894.516-.495.972z" fill="#131313"/><path d="M139.402 359.763l-.042-.157-.481-.543-.168-.626-.799.466-.479.716.381.485-.374 1.108-.726.111.273 1.018.23.862-.097 1.201.997-.351.516-.894.497.287.496.287 1.332-.357-.508-.956.396-1.029.594-.915-.894-.516-1.144-.197zm141.669-81.026l-.469 1.384-.688 1.192-.459.795 1.192.688.445.72.846.025.42 1.567.483 1.802-.94.251-1.343-.311-1.175.315-1.497 2.248-1.702.54-.28 2.089-2.789.244-.39 1.364-.86 1.49-1.007.941-1.983 1.371-1.754.974-2.587-.566-1.112.549-1.646-.818-2.936-.304-3.125-1.01-2.169-.259-3.547-.392-1.986-1.147-2.022.289-3.679-1.197-1.986-1.146-2.722-.446-2.896-1.407-2.13.822-1.351 1.538-10.319 2.849-.993-.574-2.111-.358-.067.69-1.555 1.088-1.024-.061s-1.333-.902-1.553-1.095l-1.093-.631-.853-1.618-1.986-1.147-1.177-.944-1.115-1.968-1.224-1.435-1.056-.809 2.224-1.1 1.182-3.423-.672-2.506.322-1.933 2.249-1.946-.42-1.567 2.108-2.16-.672-2.506-1.021-2.245 1.723-.462.884 1.106 2.88 1.663 2.416 2.123.924 3.447-.144 1.969-.631 1.093-1.887-1.09-2.241.097-2.917 1.957.692 2.585 1.413 2.14.525 1.959 2.439.018 2.466.43 2.192-1.846-.483-1.802 2.418-1.319 2.821.503-.812-1.462 4.028-.323 2.01-.958 3.885-.538 2.194-.588 1.621 1.665 1.018-.273-.482-1.802 2.938-1.878 1.724-.462 1.397 2.396-1.88.504-.144 1.969-1.362.869 2.838 1.506 1.567-.42 2.641-2.051 2.967-.207 3.873 2.236.745-1.291 2.115-.566 2.433-1.576 1.291.746.064 1.494-1.272 1.516.461 1.723 2.3 1.063-.326-1.843.631-1.093 2.084-.055-.42-1.566 1.796-.817-.238-2.455-1.09-2.814 1.571-1.345 1.441-.889 2.284 1.318.573-.993 2.709 1.961 2.979 1.72 2.384 1.377.644.835z" fill="#131313"/><path d="M263.858 265.883l-1.221 1.083-.992.685.865 2.287.493 1.212 1.081-.038.895 1.775 1.922-.347.207-1.735-1.36-1.315-.383-1.744-1.507-1.863zm-33.98.711l-1.812 1.073-.755 1.881-.547 1.406 1.089 1.555 1.557.171 1.478.191 1.023-1.197 1.629-.185.28-2.09-1.694-1.309-.435-1.31-1.813-.186zm51.3 23.527l-.137-1.139.678-.602.176-1.222.94-.252-.903-3.368-.846-.025-.445-.721-1.192-.688 1.147-1.986.469-1.385 1.203 1.357 2.979 1.72 2.239 2.087 2.332 1.81.524 1.958 1.998 1.815 1.643-1.699-.566-2.115 1.705-2.724-1.693-.05-1.789-2.291-.343-2.847-2.216-.749-1.585-1.842.688-1.192 1.686-1.543-.42-1.567-.16-2.476.547-1.405-.399-1.489-1.358-.056.18-2.147.719-1.704 1.77-1.229 1.842-1.585.573-.993 1.262-2.186.476-3.234.389-2.622.467-2.644 1.607-1.522 1.637 1.408 2.35-.629 1.489.86 2.115-.567 1.765 3.137-.746 1.292.496 3.729-2.065 3.575-.09 2.795 2.122 1.027.275 3.536.244 2.789-1.161 3.501.429 4.419-.089 4.054-.28 2.09 1.497 2.453 2.185 1.261.106 1.651-1.731 2.311.595 3.787-2.026 1.214-1.892 3.277-.9 2.592-1.201 1.162-2.632.201-1.215 1.417-1.918-.577-1.291-.746-1.615-.071.504 1.88 2.097 1.873 1.677.306 2.336.885 1.703-.54 1.636 1.409 1.802-.483s.426-1.542-.149-1.807c-.496-.287.746-1.291.746-1.291l1.253-.336.459-.795 2.318-1.376 1.664-1.622-.567-2.115.631-1.092 1.147-1.987.917-1.589-.003-2.518-1.036-1.989-.739-1.817.975-1.688.975-1.688 2.115-.567 2.187-.922 1.152 1.79 1.191.688 1.994 2.74-1.147 1.987.708 2.329.399 1.488 2.483 1.434 2.397-.139-.377-1.41-2.247-.238-1.092-.63-.315-1.175-.718-1.739 1.441-.89.291-1.421-1.131-1.712.285-1.756-1.543-1.685-1.568-.839-.993-.574-2.659-.211-1.788-1.032-.86 1.49-1.299 1.104-1.078-.887-1.801.483-.817-1.796.86-1.49-1.174-3.128.822-2.571.169-2.815 1.434-2.483-1.293-2.005-1.13-1.712-.311-2.099-1.788-1.033 1.147-1.986 1.835-3.178 2.115-.567.671-2.195.217-2.324-1.167-1.535.306-1.677 1.567-.42.097 2.241.776 2.898.301 2.69-1.319 2.285.672 2.506.483 1.802 2.535 1 1.447.703 1.315-1.36 1.987 1.147 2.143 1.105-.315-1.175-1.047-1.399-1.489-.86-2.033-.379-.21-.783-1.887-1.089-1.293-2.005 1.738-1.976 1.291.745 1.986 1.147.881-1.412-.712-1.404-.471-1.133.86-1.49.393 1.154.94-.252.685.992.994.573 1.415-.043 1.62.405.649 1.17-.688 1.192.508.955-1.796.817-.631 1.093-.401.695.983 1.164.344-.596.863 1.028 2.43.608.395 2.413.923 3.446-1.88.504-.468 1.385-1.09 1.887-1.444 1.814.561 1.781 1.092.631.529 1.033 1.589.918 1.964-.19.571 1.19.794.459.903-1.334.794.459.86-1.49.447 1.98 1.65-.107.42 1.567 1.549 2.02-.171 1.556-.783.21 1.182 1.279-.123 2.048-.803 1.39-.056 1.358-1.494.065.342 1.587 1.192.689.796 1.717-.463 1.719 1.092.631.378 1.41 2.529.666 1.324 1.492-.996 1.61.273 1.018 1.02.987.482 1.801-.672.936 1.621 1.664 1.175-.314 1.49.86 1.344 1.571.844 2.208-.746 1.291 1.037 1.989 2.398-.138 1.489.86.86-1.49 1.022 2.245.175 2.22 1.125 1.378-.975 1.688-.927 2.179-.515 2.153 2.055 1.716.672 2.507-1.033 1.788.452 2.313-.63 1.093-1.721 2.979-2.807-2.018-1.41.378-1.362.869-2.16-2.108-3.13-.085-.688 1.192-2.75-2.118-1.35-1.905-1.737 1.977-1.529 1.501-.405 1.62-3.447.923-3.681.987-1.987-1.147-2.409-.53.202-2.069-2.957-.383-.689 1.192-1.986-1.147-2.596.024-1.618.853-2.525-1.59-1.724.462-2.118-1.951-1.723.462-3.342 1.315-1.229-1.77-.055-2.084-2.88-1.663-.462-1.723-1.262-2.516-2.98-1.721-2.663.714-.803 1.39-1.887-1.089-1.032 1.788-2.789.243-1.95-1.324 1.262-2.185-2.797-1.35-2.586-.566-1.884 1.428-2.346-.295-2.495 1.34-2.483-1.433-2.186-1.262-1.191-.688 1.319-2.284.132-2.638-1.105-2.559-.647-3.352 2.606-.615-.587-2.193 2.728-2.662 3.023-1.566 3.368-.902.118-2.382 1.88-.504 1.318-2.284 2.036-1.805-1.987-1.147 1.592-1.266-.336-1.253-2.231-.494.459-.794zm32.34-50.386l-.595.915.758.637.908-.999 1.437.035-.602-.679-1.906.091zm-3.189 4.717l-.155 1.301.873.437.51-1.228-1.228-.51zm-11.187-3.222l-.829.978.601.678-.432 1.207.325.585 1.771.029 1.377-1.125.961-.173-.252-.94-1.514-.014.495-.972-1.099-.965-.913.664-.491.048zm266.362 42.807l-1.789-2.291-.525-1.959-1.688-.974.86-1.49-.38-2.669-3.056-.441-2.193.588-.592-1.268 1.483-.734-1.224-1.435-.349-3.18-1.964.19-2.405-1.455 1.54-.832-.473-2.392-.893-.516-.806-1.127.207-1.735-1.589-.917.64-1.683-1.093-.631-.566-2.115 1.764-1.564 1.121-1.14 1.687-.284.975-1.689 1.613-1.187-.227-1.787-1.49-.86.186-1.813 2.146-1.078 2.236-3.874-1.08-3.404 2.004-1.293-.294-1.097-2.681-1.548-.869-1.362-2.98-1.72-1.572.085-.838-1.874-.217-2.377-1.49-.86 1.172-2.833-.566-2.115-.536-2.626-1.192-.689-.974-1.754-1.092-.63-.687-2.251 1.618-.853 1.593-.008 2.231.494 1.686-1.543 1.44-.89 1.147-1.986.572-2.252 1.509-.321.715-.779.795.459.777-.544-.44-1.645-.892-2.7 1.588-.341 1.407-2.896 3.823-.772 4.17 1.149 1.457.113.399 1.488 2.034 1.638-1.863 1.507.609 2.272 1.537 1.351 1.311-.435 1.005-2.201 1.744-.383 1.343.312.652-1.015 1.175-.314 2.781 1.605.89 1.441-1.175.315-.881 1.411 1.119 1.043.794.459-1.429 1.559-2.272.608-1.684 2.802-1.032 1.788-.853 3.083-1.261 2.185-.821 3.83.568 3.374 2.427 2.792-1.089 1.887.39 3.337 1.471 2.041 1.787 1.032-.65 2.273.714 2.664.965 3.603.045 2.674.903 3.368 1.312.824.63 2.35.713 2.663.041 3.6.735 2.741-.817 2.906.672 2.506-.196 2.403 1.407 1.806 1.489-.399.86-1.49 1.645-.44.917-1.589 1.032-1.788 1.292.745 1.342.312.336 1.253 1.402 1.472 1.49.86.745-1.291-.42-1.567-1.577-.249-.399-1.488.782-1.469.273 1.018 1.405.547.564-.403.795.459.482 1.802.336 1.253 1.749-1.308-.273-1.018.698-1.782.537-.816 1.306.49-.206-1.708-1.192-.689-1.323-1.492-1.621-1.664 1.529-1.501.802-1.391 2.068-1.058 2.585-.692 2.177-.332 1.192.688s2.167-1 2.637-1.126c.47-.126 1.712-1.13 1.712-1.13l1.589.917-.688 1.192-.516.894-.333 1.264 1.723-.461 1.802-.483.728 1.148 1.887 1.09 1.738-.718 1.192.688 1.522 1.607 1.321 3.676 2.324 3.659 2.813 2.353 3.178 1.835 1.291.745.932 1.597 2.483 1.434 2.039 1.972.848 1.284 2.558 2.337 1.986 1.147 1.112 4.152.339 3.771 2.062 3.309-1.267 1.851-2.059-.792.197-1.144-.962-1.085-1.389.456-1.391-.803-1.704-.719-1.133.472.03 2.93-1.517 2.17.67 1.248 1.864-.248.848 1.284 1.603-.598.291-1.421.846.025 1.287 1.67.29 2.022-.249 1.578-2.119 1.491.127 1.729 1.259-.002.756 2.82-1.042 2.378-1.953.859.012.669-2.121.232-.281.831-1.311.435-.496-.286-1.515-.014-1.094 2.811.269 1.943 1.39.803.231.862-1.895.759-1.058-2.067-2.525-1.59 1.09-1.887-.588-2.193-1.589-.918-1.788-1.032-.727-1.148-.08-1.238-.795-.459-.284-1.687-1.534 1.167-1.974.78-.514 2.153-2.574 1.361-.791 2.06-2.588-1.826-1.855-.342-1.321 1.025-.678.602-1.807.148-1.582.676.723 2.073s-.411 1.285-.688 1.192c-.298-.172-.478 1.975-.478 1.975l-1.259.001-.708-2.329-1.328-.567-.924-.004-.535-1.368-2.236-.828-.812-1.462-2.256.353-.631 1.092-1.558-1.429-1.019.273-1.39-.803-1.462-3.89.478-1.975-1.658-1.487.891-2.002-.278-1.352 1.303-2.029-.541-2.961s1.319-2.284 1.277-2.441c-.063-.235-.436-1.311-.436-1.311l-2.582-1.491.49-1.306 1.744-.384 2.897-2.035.054-2.617-2.137-.771-1.268-2.85-2.185-1.262-1.838.66-.593 2.174-.745 1.291-1.854.917-.05 1.692.895 1.775-.458.795-1.691 1.209-.584 1.583-.504 1.563s-1.139.137-1.275.257c-.114.199-.881 1.412-.881 1.412l-3.749-3.026-1.44.89-.652 1.014-2.512.338-1.653-1.153.265-1.834.986-1.02-.357-1.331-1.579-1.508.191-1.478.726-.111-.819-3.055.792-2.059-.435-1.311.243-1.912-2.074-.535-1.718.796-1.032 1.787-1.504.655-.719 1.704-1.085.962-.403-.563z" fill="#131313"/><path d="M591.347 260.489l-.61 1.171.315 1.175.336 1.253 1.32-1.025.993.573.631-1.092-.148-1.808-1.318-1.158-1.519.911zM118.836 445.614l-1.056-.808-1.222-.176-1.559-1.43-.993-.573 1.038-1.453-.733-1.483 1.012-.607-.993-.574-3.419-2.106-1.007.941-1.291-.745-.194-1.039-.023-1.338-1.578-.248-.631 1.092-1.468-.782-1.307-.489-1.238.08-.056 1.358 1.182 1.278.359 2.591-1.614-.071-1.175.315-2.251.687-1.534 1.166-.307 1.677-1.614-.071-2.091-1.538-1.112.55-.803 1.39.995 1.832-.144 1.97 1.203 1.357 1.469.781.562 3.04 1.417 1.215 1.246 1.514 1.294 3.263.904 4.627 1.413 2.14 1.19-.57 1.396 1.137 1.056.808 1.16-.059.86-1.49 1.347-.612.745-1.292 1.019-.272.863 1.028 1.197 1.022 1.959-.525.984-2.278.255-1.244-.77-1.305.935-.586 1.309-1.694-1.192-.688.426-1.542-.941-1.007-.951-.417.468-1.384-.315-1.175.553-1.072.846.025.758.637 1.368-.535.631-1.092-.702-1.995.865-1.156zm-8.891 8.176l.588 2.193-.255 1.244-.748-1.227-.835.643-.631 1.093-.62 1.761-.802 1.391-.538.815.21.783-.976.43-.344.596-.821-.872-1.992-1.481.631-1.092.888.182 2.193-.588.025-.846-.643-.835-.441-1.645.94-.252.312-1.343 1.117-.216.459-.794-.905-1.185-1.286-.411-.208.476-1.097.293-.915-.594-.993-.573-.695-.402-.701-.736-.252-.939.486-.382.894.516.595.344.879.772 1.358.056.486-.382 1.358.056.607 1.012.988.239.794.459.831.281.059 1.16z" fill="#131313"/><path d="M129.004 473.538l.182-.889-1.307-.489-.993-.573-1.326.691-2.284-1.319-.707-1.07-1.572.085-1.693-.05.176-1.222-.742-.893-.994-.573.239-.988 1.724-.462-.758-.636-.571-1.19-1.307-.49-.42-1.566-1.28-.077.255-1.244-.769-1.305.934-.586 1.309-1.694-1.192-.688.427-1.542-.942-1.007-.951-.416.468-1.385-.314-1.175.552-1.072.846.025.759.637 1.368-.535.63-1.092 1.097-.294.915.594 1.243.255.827 1.205 1.018-.272.7-.524.905 1.185.993.573 1.718-.796 1.222.177.613 1.347 1.234.844.649 1.17 1.192.688 1.109 1.633-.348 1.521 1.161 1.2 1.291.746 1.057.808.314 1.175 1.391.803.634 1.425 1.197 1.022.609 2.272-1.294 1.438-1.362.869-1.38-.134-.573.993.68.657-.537.816-1.253.336.23.861 1.145.197-.207 1.735-1.645.441-.993-.574-.147-.548-.684.267-.511 1.228-.819.388-.854-1.618-2.284-1.319z" fill="#131313"/><path d="M138.892 476.592l1.396 1.138 2.078-.389.766 2.229-.935.586-1.528 1.501-1.157 2.577.003 2.518-1.897-.499-.808 1.056-1.687.284-.866 1.155-1.66.697.165-1.891-1.908-1.168 1.194-1.495.671-2.195.394-2.289-.007-1.593-1.902-.833-1.062-1.143 2.058-.467.934-.587.417-.951.684-.267.189.705.993.573 1.645-.44 1.83 1.188zm-23.646-3.313l1.049-.785.861-1.49.961-.173 1.263-.926 1.692.05 1.572-.086.707 1.071 2.284 1.318 1.326-.691.993.574 1.307.489-.182.888-.615.837.315 1.175-.517.894-1.78.561-.459.794-1.071-.552-1.41.378-.772.878-.904.074-1.206.827-1.746-.875-.133-2.063-2.101-.949-1.434-2.218zm31.425-65.094l.305 1.765 1.257 2.182 2.277-.274 1.52.348.315 1.175 2.016-.624 2.958 1.642 1.048 2.658-1.339 2.206 1.667.896.516-.894 1.557.171.937 1.931 1.192.689 1.41-.378.712 1.404 1.49.86.603 1.938-.285 1.755-1.002 1.276-1.958.525-1.147 1.986-.917 1.589.483 1.802-1.535 1.166-1.822.405-.918 1.589-1.251-1.848-1.489-.86-1.159 1.318-2.057.467-1.291-.745-2.182 1.256-.223 1.991-1.906.091-1.291-.746-.336-1.253-1.024-.061-.18 2.147-.914.664-1.291-.745-1.049.785-1.39-.803-1.361 2.127-2.661-1.469-.952-1.676.185-1.813-.482-1.802-2.613-.979.917-1.589-.336-1.253 1.456-1.146 1.689.975 1.952-.859.697-3.041-1.806-3.294 1.72-2.98.295-2.345-1.977-1.738-.513-1.289 1.72-2.98.075-2.539 2.82-.755 1.074-1.631 1.573-.086.607 1.013 1.719.463 1.958-.525m3.702-68.573l-.525-1.959.108-1.792-1.536-.092-1.483.733-2.288-.394.516-.894-.164-1.551-1.799-1.701-1.557-.17.452-2.388.803-1.391 1.964-.19.395-1.03 1.17-.649.812-1.981.192-1.478.4-1.954 1.935-1.862.922-2.514 1.264.333 1.529-1.501 1.498-.989 1.729-.128 1.578.249 1.561-.754 1.463.448.309.84 1.83 1.189-.67 3.454.487.877-.573.993 1.283 2.595 1.364.39.335 1.253 1.777.364.665.913.731.224 1.192.688 1.018-.273 1.093.631.685.991 1.98-.446 1.593-.007.894.516 1.337-.023.806 1.128 1.489.86.931.338.273 1.019.945.082 1.723-.462-.167-.626.846.025 1.096-.294.336 1.253.816.537.626-.168.21.784 1.343.312.993.573.746-1.291.082-.946 1.223.176 1.119 1.044-.631 1.092 1.343.312.168.627.862-.231 1.222.176-.344.596 1.673 1.231-1.605 2.781-.975 1.688-2.111-.358-.766 1.213 2.802 1.684-1.222 1.083.483 1.801-.458.795-2.818-1.428-.749 2.216-2.341.039-.688 1.192-1.856-1.601-2.33-.551-1.855-.343-1.209-1.691-2.483-1.434-2.711.223-2.087-2.463-1.785 1.486-2.445-.353-2.26 1.278-1.942 1.527-2.979-1.72-.567-2.115-.483-1.802-2.383-1.376-.689 1.192-2.968-1.052-1.291-.745-1.76.639-1.467.478z" fill="#131313"/><path d="M138.185 443.872l-.567-2.115-2.661-1.47-.952-1.675.186-1.813-.483-1.802-2.613-.979.917-1.589-.336-1.253 1.456-1.146 1.689.975 1.953-.859.696-3.041-1.806-3.294 1.72-2.98.295-2.346-1.977-1.737-.513-1.289-2.585.692-.631 1.093-1.41.377-.957-.751-1.723.462-.378-1.41-.993-.573-.51 1.228-.244 1.912-3.555 1.457.498 1.545-1.473.143-1.032 1.788.979 2.088-1.257 1.261-1.606 2.781-3.042-1.956-2.029-1.303-1.534 1.166-2.09-.279-1.92 1.606-1.069 1.965 1.28.077 1.49.86 1.828-.07 1.406.547.091 1.907-1.912-.244-2.356.296.023 1.337.194 1.039 1.391.803.907-.999 4.412 2.68-1.012.607.733 1.483-1.038 1.453.993.574 1.559 1.429 1.222.176 1.056.809-.688 1.191.703 1.995 1.096-.294.915.595.981-1.355 1.128.454 1.802-.483.516-.894-.252-.94 1.175-.315.926 1.263.357 1.332 1.192.688 1.337-.023.854 1.619.649 1.169.993.574 1.202.097.344-.596 1.259-.001 1.527-2.76 2.115-.567 1.638-2.034.394-2.288-.399-1.488-1.278 1.182-1.196.236zm19.825-5.896l-1.251-1.848-1.49-.86-1.158 1.318-2.058.467-1.291-.745-2.182 1.256-.222 1.991 1.073 1.811 1.385.468.213 3.302.66 1.838 1.276 1.001 2.214-.509.102 2.575-1.007.941-.033 2.696 1.291.745-.207 1.735-2.157.41.18 1.295-.705.189-.367-.741-1.222-.176-.574.993.957.751.315 1.175.794.459.252.939-2.603 3.133.524.699 1.331-.357 1.307.49 1.885-.17.894.516 1.593-.007s-.025.846.994.574c1.018-.273 2.072-.724 2.072-.724l.862-.231 1.097-.293 1.41-.378 1.66-.697.745-1.291-1.589-.918-1.323-1.492-.718-1.739 1.551-.163 1.313.823.745-1.291-.735-2.741-1.45-3.222-.223-2.711-1.49-.86-2.362-1.298-1.464-.447.918-1.589-.066-2.753-1.788-1.032-1.151-1.791 1.273-1.516zm-43.934-59.002l-1.019.273-.803 1.391.78.715 1.123.118.951.417.441 1.645 1.259-.001.565.856 1.144.197.901 2.109 1.58 1.508.922 2.187 1.159-.058.993.573.923-1.255 1.254-.336.631-1.092-.843-.95 1.644-1.7.17-1.556 1.42-.969-1.293-2.004.516-.894-2.116-.692-1.925-2.171-1.628-3.257-2.425-.274-1.566.419-1.536-.092-.459.795.023 1.337-.323.674-.994-.573-1.096.294-.856.565.544.778-.061 1.023z" fill="#131313"/><path d="M136.161 381.194l-1.389.456-.239.988-1.488.399-.234 1.322-1.175.314-1.396-1.137-.894-.516-1.419.968-.171 1.557-1.643 1.7.842.95-.631 1.092-1.332.357-.923 1.255.462 1.723 1.316-.101 1.641.484 1.807-.148 1.182 1.278 1.97.144.091 1.906 1.49.861 1.53-.243 2.133 1.696.924-1.255 1.096-.294-.106-1.651-1.391-.802-.143-1.473-.836-.616.04-1.102 1.206-.827 1.204-2.086 1.638-2.033-1.105-2.559-1.689-.975-1.022 1.198-.9-.851.198-1.144-.644-.835z" fill="#131313"/><path d="M137.76 375.568l-.426 1.542.315 1.174-.809 1.057-.677 1.86-1.389.456-.239.988s-1.572.085-1.488.399c.084.313-.234 1.322-.234 1.322l-1.175.314-1.396-1.137-.894-.516-1.292-2.004.453-1.129-2.054-.457-1.924-2.171-1.629-3.258.906-2.257.946.082.631-1.093 1.597-.931 1.165.275 1.49.86 1.269-.592-.294-1.096.401-.695 1.662.562 1.215-1.417 1.24 1.179 1.316-.101.294 1.097-.056 1.358.728 1.148-.03 1.771.378 1.41z" fill="#131313"/><path d="M141.365 386.185l-1.105-2.558-1.688-.975-1.023 1.197-.899-.85.197-1.144-.68-.658.677-1.86.808-1.056-.315-1.175.427-1.542 1.425-.634-.038-1.081 1.191-.571.496.287 1.781-.561.401-.695 1.651-.107 1.024.062.955-.508.344-.596 1.196-.237 1.175-.314 1.15.531-.077 1.28 1.614.071.592 1.269 1.102.04 1.799 1.701.483 1.802 1.108.374.795.459.251.94.566.856-.689 1.192-1.091.628-.458.795-.688 1.192-1.097.293.21.784-.631 1.092-.887 1.077-1.066-.218-1.489-.86-.919.33-1.469-.782-.761 1.548-1.865.247-1.067-1.477-1.948-.065-1.468.477z" fill="#131313"/><path d="M145.86 405.464l1.242-1.005.919-.33.746-1.291 1.471-1.402 1.644-1.7.275-1.165 1.645-.441-.604-3.196-1.182-1.278-.301-2.69-.812-1.462.688-1.192.761-1.547-1.49-.86-.919.33-1.469-.781-.76 1.547-1.865.247-1.067-1.477-1.949-.065-1.389.456-1.638 2.034-1.204 2.086-1.206.826-.04 1.103.836.615.143 1.473 1.391.803.106 1.65-1.096.294-.924 1.255 1.093.631-.071 1.614 1.49.86 2.089.28.963 1.085 1.49.86.994 1.833zm12.987-25.478l1.39.803 1.802-.483.848 1.284 1.191.688.504 1.88 1.589.918.911 1.519 1.771.029.468-1.385 2.329-.708.344-.596 1.624-.519.08 1.238.894.516 1.018-.273.863 1.028-.619 1.761.743.893-.631 1.092.064 1.494-2.5 1.006-1.213-.766-1.273 1.516-1.452.221-1.688-.975-1.49-.86-2.037.546-.401.695-2.52-1.256-.524-1.958-1.987-1.147-1.175.315-1.912-.243-1.192-.688-.991.685-.493-1.211.887-1.077.631-1.093-.21-.783 1.096-.294 1.147-1.986 1.091-.629 1.023-1.197z" fill="#131313"/><path d="M152.369 386.849l1.066.219.492 1.211.992-.686 1.192.689 1.912.243 1.175-.315 1.987 1.147.503 1.88 2.52 1.256.401-.696 2.037-.545 3.178 1.835 1.452-.222 1.339 1.237.65 2.428-.745 1.291.357 1.332.993.573-.098 1.202-.699.523-.479 1.975-.713 2.038-1.553-1.095-1.383.791-1.253.336-2.331-.551-2.523-.332-1.584-.583-.931-1.597-2.094.645-1.866-1.011-1.202-.098-1.093-.631-.471-1.133-1.698-.384.275-1.166 1.645-.44-.604-3.197-1.182-1.278-.301-2.69-.812-1.462 1.449-2.739z" fill="#131313"/><path d="M171.957 405.44l1.203 1.357 1.59.917 3.446-.923 1.49.86 1.423 1.549.482 1.802 2.205.081 1.34 2.495 2.285 1.319.175 2.22 1.787 1.032.999.908.216 1.118-2.555.18-.917 1.589-2.062 1.392-2.252-.572-2.115.567-.619 1.761-2.115.567-2.272.609-.176 1.222-.917 1.589.268 1.943-2.554.181-1.788-1.032-.524-1.958.102-2.127-1.292-.745-1.723.462-.603-1.938-1.49-.86-.712-1.404-1.41.378-1.192-.688-.937-1.932-1.557-.171-.516.894-1.667-.896 1.339-2.206-1.048-2.658-2.958-1.642-2.016.624-.315-1.175-1.52-.348-2.277.274-1.257-2.182-.305-1.765.516-.894-1.329-1.826 1.242-1.005.919-.33.746-1.291 1.471-1.402 1.644-1.7 1.698.385.471 1.133 1.093.631 1.201.097 1.867 1.012 2.093-.645.932 1.597 1.584.583 2.523.331 2.331.551 1.253-.335 1.383-.791 1.673 1.231z" fill="#131313"/><path d="M176.727 388.459l3.067 1.109.462 1.723 1.911-1.016 1.677.307 1.887 1.089 1.746.876 1.32-1.026.993.574 1.178 2.203 1.788 1.032.806 1.127-.765 2.472-1.649 1.365-.631 1.093-2.034-1.638-2.346-.295-.688 1.192-2.326-1.476-.918 1.589-1.828.071-.975 1.688.609 2.272 1.093.63.106 1.651-1.739.718-1.489-.861-3.447.924-1.589-.917-1.203-1.357.713-2.038.478-1.975.7-.524.097-1.201-.993-.574-.357-1.331.746-1.291-.651-2.429-1.339-1.236 1.273-1.517 1.213.767 2.501-1.006-.065-1.494.668-1.27z" fill="#131313"/><path d="M203.454 400.782l-1.146-1.456.134-1.379-2.995-1.465-1.567.42-.86 1.49-3.277-1.892-.765 2.472-1.649 1.365-.631 1.092-2.034-1.637-2.346-.295-.688 1.191-2.326-1.475-.918 1.589-1.828.07-.975 1.689.609 2.271 1.092.631.107 1.651-1.739.717 1.423 1.55.483 1.802 2.204.081 1.34 2.495 2.285 1.319.175 2.22 1.788 1.032.998.908 3.525-.945.473-2.309 1.523-1.836 1.181.02.269-1.5 2.616-1.204.492-3.49 1.936-1.862 1.261-2.185-.17-3.145zm52.256-6.449l2.123-2.416 1.756.285 1.331-.357 1.656.228.914-.664 1.94 1.914 1.867-2.431 2.115-.567 1.056.809-.629 2.351 2.374 1.967 1.28.076.609 2.272 1.65-.106 1.469.781 1.723-.461.984 1.163 1.394-.121.191 1.964 4.567 1.378 1.111 2.893-.713 2.038-2.507.672-2.025 1.214-2.075-.536-2.088.98-2.663.713-2.942-.639-1.018.273-.86 1.49-1.854.916-2.153-.514-1.723.462-2.46-.097-3.348.981.171-1.557 1.089-1.887-1.308-1.748-1.958.525-.487-.877-1.274.257-1.49-.86.035-1.437 1.332-.356.688-1.192-1.052-1.733.745-1.291 1.723-.462.542-1.74-.985-2.423-.823-2.13zm-14.8-2.587l-.918 1.589-1.637-1.409-1.409.378-2.713-1.036-1.736-1.466-.971.764-1.379-.134-1.497-2.454-1.729.128-1.344-1.571-2.037.546-2.477-1.1-.315-1.174-1.379-.135-.746 1.292-3.544 2.125-.459.794 1.198 1.023.357 1.331-1.617 2.113-1.488.398-1.029.863-.794-.458-.871.821.67 1.248.231.861.794.459-.573.993-.918 1.589-1.253.336-.041 1.102-.411 1.286-1.049.785.722.814.614 2.606.994.573.186 2.889 1.285.411 1.689.975 1.449 1.962.588 2.193.983 1.164-.191 1.478.504 1.88-.14 1.045 1.343.312.745-1.291 1.723-.462.921.929-.228 1.656-1.477 1.068.601.678 1.082-.038.211 2.042-.459.795.734 1.483.939-.252.466.798 1.49.86 1.028-.863.631-1.092 1.165.275.665.914 1.306.489 1.337-.022 1.002-1.276.337-2.189.354-1.187 1.377-1.124-.163-1.552.681-2.785 1.018-.272-.462-1.724.87-2.08-.294-1.097 1.491-2.582 1.42-.968-.189-.705 1.603-.597.957.751 1.175-.315-.504-1.88-1.293-2.004-2.638-.133-.829.978-2.492.415-1.799-1.7-1.027-2.58-1.191-.688-.896-1.775 1.753-2.232 1.614.071 1.855.342 1.39.803.357 1.332 2.247.237.974-1.688 2.125-1.157-.315-1.175.588-2.508.071-1.614-.989-1.498zm-92.12-50.534l1.728-1.386 1.19-.571 1.76-.64 1.291.746 2.968 1.051.688-1.191 2.384 1.376 1.049 3.916 2.98 1.721.462 1.723-2.564.771-.249 1.578-1.332.357-1.334 2.54-1.253.336-.171 1.557-2.162.075-1.192-.688-2.272.609-1.032 1.788-1.645.44-.631 1.093-1.489-.86-1.328-.568-.429-.976-.65-1.17.474-1.05.882-1.412 1.622-1.778-1.125-1.377-.252-.94.803-1.391-.932-1.597.213-1.4 1.41-.378.138-2.304z" fill="#131313"/><path d="M193.33 349.842l.818-1.647-2.817-1.428-.75 2.216-2.34.039-.688 1.192-1.856-1.601-4.186-.894-1.208-1.691-2.483-1.433-2.711.222-2.088-2.463-1.784 1.486-2.445-.352-2.261 1.277-1.941 1.527.462 1.724-2.564.771-.249 1.578-1.332.356-1.334 2.541-1.253.336-.171 1.556 1.689.975 1.723-.461 1.092.63 1.033-1.787.825-.054 1.109 1.634 2.571.822 1.332-.357.609 2.272 2.131.436.483 1.802 2.497-.081 2.845-1.602.803-1.391 1.723-.462 1.146 1.457 1.39.802 1.88-.503.894.516 1.147-1.987 2.197-1.512 1.292.745.839-1.568 2.82-.755-.889-4.883z" fill="#131313"/><path d="M151.784 356.777l1.032-1.788 2.272-.608 1.192.688 2.162-.076 1.689.975 1.723-.462 1.092.631 1.033-1.788.825-.053 1.109 1.634 2.571.822 1.332-.357.609 2.272 2.131.436.483 1.802-2.036.545-.238 2.247-2.037.545-1.787-1.032-.803 1.391.018 2.262-.917 1.589-2.501 1.006-2.005 1.292.022-3.364.326-2.857-3.277-1.893-1.887-1.089-2.738-.19-.378-1.41.442-1.798-1.459-1.372z" fill="#131313"/><path d="M149.508 358.312l.631-1.092 1.645-.441 1.459 1.372-.442 1.798.378 1.41 2.738.189 1.887 1.09 3.277 1.892-.325 2.858-.023 3.364-1.952.859-.918 1.589-1.561.754-.802 1.391-1.799-1.701-1.103-.04-.592-1.269-1.614-.071.077-1.28-1.15-.532-.378-1.41.543-.481.041-1.102-.348-1.922-.993-.573-1.045-.14-.721-.814-.336-1.253-1.045-.14-.827-1.206.866-1.155-.435-1.311.573-.993.056-1.359.95-.842.429.977 1.328.567 1.531 1.017z" fill="#131313"/><path d="M156.024 377.306l-.483-1.802.803-1.391 1.561-.754.918-1.589 1.952-.859 2.005-1.292 2.501-1.006.917-1.589-.018-2.262.803-1.391 1.787 1.032 2.037-.545.238-2.247 2.036-.546 2.497-.081 2.845-1.602.803-1.39 1.723-.462 1.146 1.456 1.39.803 1.88-.504.894.516 2.535 1 3.277 1.892-1.146 1.987-.918 1.589-2.451-.687-1.561.754-.86 1.49-.864 2.415-3.104-.932-.917 1.589-2.058.468.744 2.151-.745 1.291 1.402 1.472-2.458 2.421.651 2.428-1.382 2.05-.484 1.641-1.018.272-.894-.516-.08-1.238-1.624.52-.344.595-2.329.708-.468 1.385-1.771-.029-.911-1.519-1.824-.854-.504-1.88-1.192-.688-.848-1.284-1.801.482-1.391-.803-.643-.835-.252-.94-2.002-.89zM40.749 226.126l-1.49-5.558 2.477-4.29 4.816-2.326 2.83-4.902 6.024-2.65 6.183-3.988 7.715-3.103 2.83-4.902-.056-6.978 2.476-4.289 5.515 3.184 6.283-1.683.733-6.931 6.283-1.683 7.702-.251 8.776-4.942 2.477-4.289 5.316-1.424 3.535 4.491 4.289 2.477 5.799-1.554 2.758 1.592 7.819 3.085 10.111 5.837-3.538 6.128-2.83 4.902-7.561-2.118-4.815 2.326-2.653 4.596-2.666 7.448-9.576-2.873-2.83 4.902-6.348 1.442 2.297 6.637-2.3 3.983 4.324 4.539-7.581 7.47 2.007 7.491-4.263 6.322-1.492 5.061-3.141.842-2.758-1.592-.246-3.819-5.01 1.602-1.061 1.838-7.185 2.184-1.445 4.272-5.463-.09-2.81-4.686-5.627-2.636-1.553-5.799-3.677-2.123-2.616-3.961-5.557 1.489-4.29-2.476-1.985-2.576-.777-2.9-6.175-2.748z" fill="#FF522D"/><path d="M176.527 385.832l-.864-1.028.484-1.641 1.382-2.049-.651-2.428 2.458-2.422 1.954.4 3.682-.986.717 1.738 1.391.803-.129 1.714 1.664 1.821-2.261 1.277-1.914 1.94.65 2.429-1.691 1.208-1.912-.243-1.748 1.308-3.011-1.208-.743-.893.542-1.74zm7.547-15.712l.864-2.414.86-1.49 1.561-.754 2.451.687 2.064-3.576-3.278-1.892-2.534-1 1.147-1.987 2.197-1.512 1.291.746.839-1.569 2.82-.755-.946-4.784.818-1.646.459-.795-.483-1.802 1.221-1.082-2.802-1.684.767-1.213 2.111.358 2.58-4.47.845-1.233.846.025 2.489 1.768-.02 1.18.988.239.555 1.447-.917 1.589.546 2.036-1.754.974.356 1.332-.974 1.688.398 1.488 1.291.746.399 1.488.89 1.441-.249 1.578.894.516.719-1.704.159-2.226 1.598-.931 2.032.379 1.39.802 1.168-1.908 1.093.631.764.971 1.446-.556.688-1.191 1.645-.441 1.192.688 2.032.379 1.689.975 1.348.646.227 1.786-1.267 1.851-1.399 1.046-1.319 2.284.441 1.645 1.291.746-.128 1.713.44 1.645-1.815 1.998-1.723.462-.624-2.016-2.016.624-2.959-1.642-1.444 1.815-.593 2.173-.087 1.871-.917 1.589-1.724.461-1.191-.688-1.298 2.363.776 2.898-1.204 2.086-.917 1.589-.395 2.289-2.148-1.44-1.199-2.281-.42-1.567-.947-1.341-.84-3.133-1.897-.499-1.334-2.161-2.319.117-1.897-.499-.369 1.442-1.391-.803-1.55 1.423-1.839-.598-1.558-1.43z" fill="#131313"/><path d="M179.976 370.805l.918-1.589 3.104.931 1.558 1.43 1.84.598 1.528-1.501 1.391.803.369-1.442 1.897.499 2.319-.118 1.335 2.161 1.896.499.84 3.134.947 1.341-1.471 1.402-1.589-.918-2.194.588-1.192-.688-1.914 1.94-2.981 1.722-1.663-1.821.128-1.713-1.39-.803-.718-1.739-3.682.987-1.954-.4-1.401-1.472.745-1.291-.744-2.151 2.078-.389z" fill="#131313"/><path d="M214.489 389.008l1.197 1.022.357 1.332-1.617 2.112-1.488.399-1.028.863-.795-.459-.871.822.67 1.247.231.862.794.459-1.491 2.582-1.096.294-.53 2.409-1.049.784-1.469-.781.86-1.49-2.086-1.204-1.644.44-1.146-1.456.134-1.379-2.995-1.464-1.567.42-.86 1.489-3.277-1.892-.806-1.127-1.788-1.032-1.178-2.203-.993-.574-1.32 1.026-3.733-2.023-1.677-.306-1.91 1.016-.462-1.723 1.748-1.309 1.912.244 1.691-1.209-.65-2.428 1.915-1.941 2.26-1.277 2.981-1.722 1.914-1.94 1.192.688 2.193-.588 1.59.918 1.471-1.402.42 1.566 1.199 2.282 2.148 1.439 2.1-.311 1.297 1.08 1.933.322.957.751 1.175-.315.717 1.738 1.605.662-1.122 1.14.309.841 1.678.306z" fill="#131313"/><path d="M204.036 380.389l2.121-3.675-.776-2.898 1.298-2.363 1.192.688 1.723-.461.917-1.589.087-1.871.593-2.173 1.445-1.815 2.958 1.642 2.016-.624.624 2.016 1.723-.462.118 2.319.593 2.528-.666 2.529.338 2.512-.425 2.8-2.771 2.506.294 1.097 1.778 1.622-.746 1.291-3.544 2.125-.459.795-1.713-.129-.309-.84 1.121-1.14-1.604-.662-.718-1.739-1.175.315-.957-.751-1.933-.321-1.297-1.08-2.099.311.253-2.503zm76.498-93.62l-1.175.315-1.496 2.248-1.703.54-.279 2.09-2.789.244-.39 1.363-.861 1.49-1.007.942-2.061 1.392-1.754.973-2.587-.566-1.112.55-1.646-.818-2.936-.305-3.125-1.01-2.169-.258-3.547-.393-1.986-1.147-2.022.29-3.679-1.197-1.986-1.147-2.722-.446-2.896-1.407-2.13.823-1.351 1.537-10.319 2.849-.803 1.391-.149 1.635-.516.894.189.705-.516.894-.631 1.092.622.757 1.391.803.722.814-.27 1.499.67 1.248.993.573-.442 1.798-.63 1.092-.795-.459-.862.231-1.526-.682-1.337.022-1.186-.353-1.206.826-1.007.942-.733-1.483-1.986-1.147-1.641-.484-1.808.149-1.092-.631-1.28-.077-1.683-.64-1.253.336.592 1.268.315 1.175 1.417 1.216 1.291.745-.014 1.515.378 1.41-1.101 1.218.007 1.594.894.516.655 1.503.017 1.003-1.494.065-1.091.628-.14 1.045-.344.596.529 1.033-1.007.942.618 1.681 1.144.197 1.024.062 1.093.631.526-1.485.689.068.213-1.401 1.19-.57.862-.231.794.458.893-.742.435 1.31 1.092.631-.917 1.589-.757.623-.975 1.688-1.315 1.36.075.903-.965 1.099-.574.993 1.391.803-.484 1.64-.809 1.057-.588 1.249-1.082.038-.445-.721-1.566.42-.925-.004.267.684-1.169.649.556 1.446-.918 1.589.546 2.037-1.754.974.357 1.331-.975 1.689.399 1.488 1.291.746.399 1.488.889 1.441-.249 1.577.894.516.719-1.703.159-2.226 1.598-.932 2.032.379 1.391.803 1.168-1.908 1.092.631.764.971 1.446-.556.688-1.192 1.645-.441 1.321-1.025-.315-1.175-1.291-.745.457-2.054 2.33.551.516-.894.894.516.688-1.192 1.38.135.758.636.101 1.316 1.354.981 1.127-.806 2.445.352 1.788 1.032 1.357-1.203 1.99.223.746-1.292 1.102.041.894.516.934-.586.291-1.421 1.018-.273 2.692.958 2.586.566 2.759.268 3.593-.375.171-1.557.688-1.192-.149-1.807 1.778-3.079-.357-1.331.364-1.777-.854-1.618.66-2.864 1.701-1.799-.248-1.864 1.951-2.118-.979-2.089.4-1.954 1.491-2.582 1.089-1.887 1.38.134.419 1.567 1.661-.697 1.376-2.384 1.628-1.443.703-1.448 1.796-.817 2.606-.615-.587-2.193 2.729-2.662 3.022-1.566 3.368-.902.118-2.382 1.88-.504 1.319-2.284 2.035-1.805-1.987-1.147 1.592-1.266-.336-1.253-2.231-.494-.169-1.885.678-.602.176-1.222-.68-.658z" fill="#131313"/><path d="M221.771 364.806l-1.816 1.998.118 2.319.593 2.528-.665 2.529.337 2.512-.425 2.801-2.771 2.505.294 1.097 1.778 1.622 1.379.134.315 1.175 2.478 1.1 2.036-.546 1.345 1.571 1.728-.128 1.497 2.454 1.38.134.97-.764.954-1.767.574-.993-.462-1.723.348-1.521.794.459 1.959-.525 1.435-1.224-.034-2.006.557-1.996 1.331-.357 1.658 1.487.573-.993.803-1.391-.993-.573-.33-.919 1.487-1.658 1.828-.07.98-1.354.918-1.589-1.391-.803-.189-.705.746-1.291.096-2.461-1.799-1.7-.672-2.507 1.268-1.851 1.723-.461.975-1.689.879-2.67 1.554-2.348.362-3.035-.545-2.037 1.763-1.564-.419-1.566-3.594.375-2.758-.268-2.587-.567-2.691-.958-1.019.273-.29 1.421-.935.587-.894-.516-1.102-.041-.745 1.291-1.991-.222-1.357 1.203-1.787-1.032-2.445-.352-1.128.805-1.354-.98-.101-1.316-.758-.637-1.379-.134-.923 1.255-.894-.516-.516.894-2.331-.551-.457 2.053 1.291.746.315 1.175-1.32 1.025 1.192.688 2.032.379 1.688.975 1.349.646.227 1.786-1.267 1.851-1.399 1.047-1.319 2.284.441 1.645 1.291.745-.129 1.714.42 1.566m276.249 36.466l-3.573.453-1.641-.484-4.375 1.844-2.898.777-1.72 2.979-2.417 1.32-2.318 1.376-3.687.653-2.701-.368-1.987-1.147-2.228-2.677-2.285-1.319-2.857-.326-2.507.672-2.631 1.461-2.483-1.434-3.838 1.028-2.734-1.114-.86 1.49-.66-1.838-1.192-.688-.853-1.619.802-1.39-.461-1.724.86-1.489 1.892-3.278.516-.894.631-1.092 1.641.484.043 1.415 2.111.358 1.37.725 2.638.132 1.39.803 1.442.369 1.788 1.032 3.023-1.565 1.511.938 1.824.855 1.566-.42.378 1.41 1.579 1.508 1.645-.441 1.175-.315 1.031 1.655 1.936-1.862 1.645-.441-.776-2.898 1.663-2.88 1.802-3.926.408-3.803 2.581-4.469 2.714-5.849-1.262-7.218.151-5.077-2.383-.118-2.523-5.032-2.116-4.135.406-1.62.745-1.291-2.038-.713-1.792-.108-1.34-2.495 2.525-3.111 1.566-.42-.567-2.115 1.3-1.104 2.403.196 2.062-1.392-.525-1.958 1.273-1.517 1.014.652 2.507-.672 1.215-1.417 1.192.688 3.223-.192.917-1.589 1.542.427 1.433-2.483 1.489-.399-1.05-3.917 1.571-1.344.488-2.565 2.006-.034 1.092.631-1.647 2.624.713 2.663 2.132.436 1.413 2.14 1.553 1.096 1.455 2.296 2.227 1.419 1.398-1.047 2.488.509 1.887 1.09 1.046 1.398-.043 3.286-2.083 1.314-1.376 2.383-.801 2.65-.41 2.544-1.204 2.086-.603 2.764 1.434 2.218 1.693.051.315 1.175 1.489.86-.054 2.617-2.752 4.767-1.921 1.606-.975 1.689-1.534 1.166.286 2.946-.975 1.689-1.321 1.025-.037 3.62-1.567.42-2.042.211-1.892 3.278-1.143 1.062-1.222-.176-1.097.293-.803 1.391.504 1.88 1.035.73-1.106.884.944 3.525 1.66-.697 1.49.86-2.351 4.072.896 1.775-3.525.945" fill="#131313"/><path d="M551.226 352.004l-.506-4.397.321-1.934-1.644-3.001-1.787-1.032-1.59-.918-1.23 1.673-1.475-1.116.259-2.168.215-3.584 1.147-1.986 2.65-2.641-2.081-2.129-.963-1.086-1.723.462-1.037-1.989-1.197-1.022 1.257-1.261-.189-.705-.783.21-1.71-1.053-1.138.137-.437-2.569-.941-1.007-1.23-1.77-1.776-.363-.756 1.881-1.301-.155-.54-1.702-.993-.574-1.259.002-.917 1.589-.228 1.656-2.184-.002-.962-1.086.776-1.803-1.02-.986-1.205.827-1.85-.008-1.489-.861-.315-1.175-1.771-.029-.462-1.723-1.614-.071-2.112-1.617-2.404-.196-1.078-2.145-1.291-.746-1.002 1.276-1.253.336-1.192-.688-1.588.341-1.261 2.185.894.516-.322 1.933 1.093.631-.238 2.247 3.675 2.121 1.378-1.124.336 1.253.893.516.133 2.063-1.314 1.36-.4 1.954-2.44-.018-1.278 1.182-1.844.326.714 2.664 2.132.436 1.413 2.14 1.552 1.095 1.455 2.297 2.227 1.418 1.399-1.047 2.487.509 1.887 1.09 1.047 1.399-.043 3.285-2.083 1.314-1.376 2.384-.802 2.649-.409 2.545-1.204 2.085-.603 2.764 1.434 2.219 1.692.05.315 1.175 1.49.86-.054 2.617-1.684 2.802-1.09 1.887-1.92 1.606-.975 1.689-1.534 1.166.285 2.946-.974 1.689-1.321 1.025-.044 2.027-.072 1.614-1.566.42-2.042.211-1.893 3.278-1.142 1.062-1.223-.176-1.097.293-.802 1.391.503 1.88 1.035.73-1.106.884.945 3.525 1.66-.697 1.49.86-2.351 4.072.895 1.775 1.788 1.033 1.182 1.278 2.894.148 2.872-1.189 4.073-1.092 2.667-1.638 3.212-.86.917-1.589 1.778-3.079 2.813-2.349 1.852-2.176 1.261-2.185.085-3.129 2.638-4.568 2.213-1.769 2.068.202 2.409.53 2.322-2.302 1.643-1.699 2.79-.244 3.765-.673 2.975-2.057 1.434-2.483.492-3.49 1.947-1.193-.735-2.742-1.092-.63-2.265-2.5.362-3.035-.714-2.664z" fill="#131313"/><path d="M505.182 304.568l-1.371-1.983-1.295.179-.399-1.488-1.731-1.132-1.39-.803-1.567.42.399 1.488-1.032 1.788-2.277.274-.378-1.409-1.15-.532-.462-1.723-2.021.29-2.466-.431-2.052.802-2.199.253-.797 1.725-.102 2.126-1.032 1.788 1.073 1.811-.117 2.382-1.377 2.384.924 3.446-2.102 2.495.545 2.036-1.516-1.272-.462-1.724-1.688-.975-1.107.885.128 1.728-2.954 2.135-1.567.42-.123 2.048-.619 1.761-2.073.723-2.98-1.72-1.557-4.872-.484-3.06-.756-2.82-.28-2.612-.651-2.428-1.912-.243-1.379-.134-.472-1.133-.905-1.185-1.39-.803-.357-1.331.573-.994-.247-1.864-1.391-.803-1.41.378-1.755-.285-.42-1.567.459-.795-.894-.516-1.136-2.046-1.841-1.858-1.761-.619-1.519.911-1.603.597-.525-1.958 1.227-.749-.336-1.253-1.788-1.032-.254 1.244-.631 1.092-1.238.08-.975 1.688-1.206.827-.3 2.012.483 1.801 1.229 1.77-.107 1.791.378 1.41 2.185 1.262 1.39.803-.092 1.536-.39 1.364 1.589.917-.918 1.589-.693.858.713 2.663-.85.899.091 1.907-1.534 1.167 1.099 2.224-.594.915.274 2.277.995 1.832 1.144.197 2.086 1.204.516-.893 1.734.206.462 1.724.947 1.341-1.138.137-.427 1.542-.312 1.343.566.856 1.566-.42 1.203 1.357.926 1.263-.63 1.092-.542 1.74.336 1.254-.176 1.222-1.488.399-1.589-.918-1.724.462-.941-1.007-1.756-.285-.586-.934-1.337.022-1.429 1.559.054 2.084 1.486 1.784-.807 2.316-1.548 2.681-.922 2.514.097 2.241-.301 2.011 1.788 1.032-1.08 1.297-2.315-.807-1.548-2.019-2.086-1.205-1.279 1.182-.138 2.304-2.255 1.612-2.042.211-1.989 1.037.719 2.998-.86 1.489.756 2.82 1.788 1.032 1.548 2.02.357 1.332-1.278 1.182-.222 1.99-1.41.378.112 1.985-.286 1.756 1.517 1.272.498 1.546-.636.758.629 2.35.749 1.227-.369 1.442.654 1.504-2.856.933.336 1.253-1.316.101-.135 1.379 2.195.672 3.576 2.064 1.541.426 1.802-.482 1.782.697 2.356-.295 2.362 1.298 1.421.291 2.194-.588.63-1.092 2.384 1.376 3.097-5.363 1.86.676-.176 1.223 2.111.358 1.369.724 2.638.133 1.391.803 1.442.369 1.788 1.032 3.022-1.565 3.335 1.793 1.567-.42.378 1.41 1.579 1.508 2.82-.756 1.031 1.655 1.936-1.862 1.645-.441-.777-2.898 1.663-2.881 1.803-3.925.408-3.803 2.58-4.47 2.715-5.848-1.262-7.218.15-5.078-2.382-.117-4.717-9.146.405-1.62.746-1.291-2.039-.713-1.791-.108-1.341-2.495 2.525-3.111 1.567-.42-.504-1.88 1.299-1.104 2.403.196 2.062-1.392-.525-1.959 1.273-1.516 1.014.652 2.507-.672 1.215-1.417 1.192.688 3.223-.192.917-1.589 1.542.427 1.434-2.483 1.488-.399-1.05-3.917 1.571-1.344.488-2.566 2.006-.033 1.092.631-1.647 2.624 1.844-.326 1.278-1.182 2.439.018.4-1.955 1.315-1.359-.133-2.064-.894-.516-.336-1.253-1.377 1.125-3.675-2.122.237-2.246-1.092-.631.321-1.933-.893-.516 1.261-2.185 1.588-.342 1.191.688 1.254-.336 1.001-1.275.02-1.181-3.696-2.2zM295.531 406.334l-1.345-1.571-2.506.671-2.273-.65-2.257.353-1.11-2.893-4.568-1.379-.19-1.963-1.395.121-.983-1.163-1.723.461-1.469-.781-1.651.106-.608-2.272-1.28-.076-2.374-1.967.629-2.351 1.001-1.276-1.031-1.655.574-.993-.98-2.088 1.262-2.185 1.593-.007.86-1.49 1.479.191 1.957-1.783-.441-1.645-.827-1.206.045-2.027 1.703.719 2.115-.567 1.441-.89-.357-1.331.574-.993 2.951.048.803-1.39 2.977-.798.63-1.092 1.42-.968 1.477-1.068.573-.993-.498-1.546 1.097-.293 1.625.739 1.343.312 1.689.975 1.488-.399 2.105.024 1.987 1.147 1.642 1.742 1.919 1.837.483 1.802 2.121-.233.461 1.723 1.292.746 1.791.107 1.192.689 1.802-.483 1.547.761 1.645-.441-.526 1.484-1.147 1.986-1.706 1.465-2.35.63-1.614-.071-1.954-.4-.767 1.213-1.645.44-1.463-.447-1.244-.255-1.87-.086-1.457-.113-.315-1.175.688-1.192-1.986-1.147-1.216 1.417-.463 1.719-.86 1.49.263 1.609 1.251 1.847-1.357 1.203.294 1.097 1.521.348 1.191.688.785 1.049 1.698.385.357 1.331-.516.894-1.796.817-.803 1.391-1.032 1.788.462 1.723-.119 1.123-.745 1.291-.742.367.357 1.332-.745 1.291-.234 1.322.315 1.175-1.958.524" fill="#131313"/><path d="M269.41 390.326l-2.115.567-1.867 2.431-1.94-1.915-.914.665-1.656-.228-1.332.357-1.755-.286-2.123 2.416-1.291-.745-1.391-.803-1.62-.405-.917 1.589-1.689-.975-1.373.2-.523-.699-1.97-.144-.821-.872-1.939-.656-1.185.906-.917 1.589-1.637-1.409-1.41.378-2.712-1.036-1.736-1.466.954-1.767.573-.993-.462-1.723.348-1.521.795.459 1.958-.525 1.435-1.224-.033-2.006.556-1.996 1.332-.357 1.658 1.487.573-.993.803-1.391-.993-.573-.331-.919 1.487-1.658 1.828-.07.981-1.354.917-1.589-1.39-.803-.189-.705.745-1.291.097-2.46-1.799-1.701-.672-2.507 1.267-1.851 1.723-.461.975-1.689.88-2.67 1.554-2.347.362-3.036-.546-2.036 1.764-1.564-.42-1.567.171-1.557.688-1.192 1.641.484.335 1.253.994.574 1.029.396 1.688.974 2.98 1.721 2.202 2.264 1.49.86.713 2.663-.661 1.605 1.367 2.908.045 2.674 1.589.918.525 1.958-.861 1.49 1.001 2.167 1.876.421 1.552 1.095.499 1.545 1.174-.315 1.49.861-.312 1.342.609 2.272 1.391.803-.045 2.027.827 1.205.441 1.645-1.957 1.784-1.479-.192-.86 1.49-1.593.007-1.262 2.185.98 2.089-.574.993 1.031 1.655-1.001 1.275-1.62-.405z" fill="#131313"/><path d="M267.646 309.785l.647 3.353 1.105 2.559-.133 2.638-1.319 2.284 1.192.688 2.185 1.262 2.483 1.433 2.496-1.34 2.345.295 1.884-1.428 2.587.566 2.796 1.349-1.261 2.186 1.95 1.324 2.789-.244 1.032-1.787 1.887 1.089.803-1.39 2.663-.714 2.98 1.72 1.262 2.517.461 1.723 2.881 1.663.054 2.084 1.23 1.769 3.342-1.315 1.723-.461 2.118 1.951 1.723-.462 2.525 1.59 1.619-.853 2.596-.024 1.986 1.147.688-1.192 2.957.383-.201 2.069 2.409.53 1.986 1.146 3.682-.986 3.446-.924.406-1.619 1.529-1.502 1.737-1.976 1.35 1.905 2.75 2.117.688-1.191 3.129.085 2.16 2.107 1.363-.868 1.41-.378 2.807 2.018.819 3.055 2.947.973 3.156.498-.838 2.827-3.105 2.511-1.663 2.88-4.395-1.676-3.476 2.694-.054 2.617-3.02-.618-1.754.974-2.881-1.663-2.254 1.612-3.317.469-1.197-1.023-3.447.924-2.623-.389-3.085 1.33-.546 2.665-.398 3.213.996 3.092-3.038 1.821-2.138 2.672.253 2.199-2.379 2.4-1.645.441-1.547-.761-1.802.483-1.192-.688-1.791-.108-1.292-.745-.461-1.723-2.121.232-.483-1.801-1.919-1.837-1.642-1.743-1.987-1.147-2.105-.023-1.488.399-1.689-.975-2.968-1.052-1.097.294.498 1.546-.573.993-2.897 2.035-.63 1.093-3.055.818-.803 1.391-2.952-.049-.573.993.357 1.332-1.441.89-2.115.566-1.704-.718-1.39-.803-.609-2.272.312-1.343-1.49-.86-1.175.315-.498-1.546-1.553-1.095-1.875-.421-1.001-2.166.86-1.49s-.127-1.729-.524-1.958l-1.59-.918.003-2.183-1.336-3.42s.375-1.108.661-1.605c.308-.418-.713-2.663-.713-2.663l-1.49-.86-2.202-2.265-2.979-1.72-1.689-.975-2.023-.969-.335-1.253-1.641-.484-.149-1.807 1.778-3.079-.357-1.332.364-1.776-.854-1.619.66-2.863 1.701-1.799-.248-1.865 1.951-2.118-.979-2.088.4-1.954 1.491-2.582 1.089-1.887 1.38.134.419 1.566 1.661-.696 1.376-2.384 1.628-1.444.703-1.448 1.89-1.094zm82.976-142.124l-.51 1.229-.348 1.52-.69-.067.008-1.849-.482-1.802-1.791 1.152s-1.112.549-1.305.769l-1.498.989-.27 1.5-.077 1.28-.51 1.228.55 1.112-1.252 1.594.873.438.992-.685 1.275 1.001.394 1.154 1.056.809 2.078-.39.55 1.112 1.179-1.239 1.02.986 2.147.18 1.628-1.443.604-1.505-1.082-1.222-1.616-1.33.772-.878-.028-1.672-.932-1.597-.305-1.765-2.43-.609zM338.51 226.48l-.949.842s.826 1.205.784 1.048c-.042-.156.679-.601.679-.601l-.514-1.289z" fill="#131313"/><path d="M410.781 251.194l.905 1.185 1.245 1.513 2.038.714 1.038 3.248 2.563 2.671.357 1.332 1.141 2.38 1.577 3.692-1.362.868-.578 1.918-.688 1.192.989 1.498.402-.695 2.09.279.44 1.645.894.516-.537.816.462 1.723 1.975.478 1.283 2.595 2.582 1.491-.18 2.147-.671 2.195.869 1.362.356 1.332-.458.795.524 1.958 1.145.197 1.645-.441.573-.993.94-.252 1.134.788 1.613-1.188 1.5.27.802-1.391 1.51-.32.393 1.154-.255 1.243-.63 1.093-1.238.08-.975 1.688-1.206.827-.3 2.011.482 1.802 1.23 1.769-.107 1.792.377 1.41 2.185 1.262 1.391.803-.092 1.535-.39 1.364 1.589.918-.918 1.589-.694.857.714 2.664-.85.899.091 1.907-1.535 1.166 1.1 2.224-.573.994.274 2.277.995 1.832 1.144.197 2.086 1.204.516-.893 1.734.207.462 1.723.947 1.341-1.139.137-.426 1.542-.312 1.343.565.856 1.567-.42 1.203 1.357.926 1.263-.631 1.092-.541 1.74.336 1.254-.176 1.222-1.488.399-1.59-.917-1.723.461-.941-1.007-1.756-.285-.586-.934-1.337.022-1.43 1.559.055 2.084 1.486 1.785-.807 2.315-1.548 2.681-.922 2.514.097 2.241-.301 2.011 1.788 1.033-1.08 1.296-2.315-.807-1.549-2.019-2.085-1.205-1.279 1.183-.138 2.303-2.255 1.612-2.042.211-1.989 1.037.719 2.998-.86 1.489.756 2.82 1.787 1.033 1.549 2.019.357 1.332-1.278 1.182-.223 1.991-1.41.377.112 1.985-.285 1.756 1.517 1.272.498 1.546-.637.758.63 2.35.748 1.227-.369 1.442.655 1.504-2.856.933.336 1.253-1.317.101-.134 1.379 2.195.672 3.575 2.064 1.542.426-.213 1.401-1.201-.098-.631 1.092-2.214.51-1.376 2.383-2.711.223-.688 1.192.339 3.771-2.104 1.235.441 1.645-1.09 1.887.672 2.507-1.947 1.193-2.227 3.283-1.884 1.429-1.567.42-2.309-.473-2.272.609-2.481-.175-2.185-1.262.432-1.207.274-2.424 1.592-1.266 1.204-2.086-.781-1.973 1.204-2.086.081-2.204-.989-1.499-.504-1.879-2.681-1.549-1.256-2.182-2.583-1.491-.087-2.831-.962-1.085-1.712 1.13-2.982.463-.689 1.192-2.063.133-2.425-1.533-1.601-1.586 1.319-2.284 1.049-.785-.912-2.778-1.564-1.763-1.536-.093-.972-.495-.733-1.482-.097-2.241-.798-2.977.645-2.607 1.899-1.685-.666-2.172-2.894-.148-1.723.462-.89-1.441-2.118-1.951.269-2.758 2.288-4.308-1.292-.745-2.835 1.012-1.235-2.104-2.384-1.376-1.658-1.487-2.517.003-3.212.86-2.474 1.419-2.382-.117-1.152-1.791 1.319-2.284-3.029-3.47 1.663-2.88 3.105-2.512.838-2.827-3.156-.497-2.947-.974-.819-3.055 1.721-2.979.63-1.093-.452-2.313 1.033-1.788-.672-2.507-2.055-1.716.515-2.153.927-2.179.975-1.688-1.125-1.378-.175-2.22-1.022-2.245-.86 1.49-1.489-.86-2.398.138-1.037-1.989.746-1.291-.844-2.208-1.344-1.571-1.49-.86-1.175.315-1.621-1.665.672-.936-.482-1.801-1.02-.986-.273-1.019.996-1.61-1.324-1.492-2.529-.666-.378-1.41-1.092-.631.463-1.719-.796-1.717-1.192-.688-.342-1.588 1.494-.065.056-1.358.803-1.39.123-2.048-1.182-1.279.783-.209.171-1.557-1.549-2.02-.42-1.567-1.65.107-.447-1.979-.86 1.489c-.115.199-.794-.458-.794-.458l-.903 1.333-.794-.459-.571-1.19-1.964.19-1.589-.917-.529-1.034-1.092-.631-.561-1.78 1.444-1.815 1.09-1.887.468-1.385 1.959-.524-.924-3.447-.394-2.413-2.43-.608-.963-1.086-.244.654-.984-1.164.975-1.688 1.796-.818-.508-.955.688-1.192-.649-1.169-1.62-.406-1.316.101-1.093-.631-.685-.991-.94.252-.393-1.154 2.063-.133 1.582-.676 1.688.975 2.963.717-.18 2.147.794.459 2.185 1.261 2.664-.713-.028-1.672-1.496-1.194-.299-1.431-2.069-.201-2.019-1.894-.993-.574-.003-2.517.337-2.19-.993-.573-1.142-2.381 1.476-2.326 4.7-1.259 2.58.232-.168-.627 3.839-1.028 2.291-1.79 1.88-.503.745-1.292-1.417-1.215-1.28-.077-1.291-.745.86-1.49c.574-.993.993.573.993.573l1.091-.628-1.014-.652.213-1.4-1.093-.631.641-1.682 1.116-1.475-1.431.3-.477-1.468 2.762-.656.488-2.565 2.469-1.753.745-1.291 3.613-1.556.688-1.192 2.454-1.497.438-.873-1.97-.144.745-1.291 2.418-1.319 2.109-.901.176-1.223 1.718-.796-.458 2.054.378 1.41.918-1.59 3.076-.74-.107-1.65 1.853-.917 2.064-.133-1.177-.944-1.406-.547-.92-.928 2.193-.588 2.083-1.314.705-.189-.697-1.66-.951-.417-.63-2.35.05-1.692.502-4.081 1.466-1.736 1.105-2.143 2.273.651 1.425-.634 1.016 1.911-1.147 1.986-.791 2.059 3.175-.683.459-.794 1.958-.525 1.788 1.032-.918 1.589s.258 1.274.806 1.127c.627-.167 2.382.118 2.382.118l.008-1.849-1.092-.631 1.878-1.763 1.959-.525 1.658-1.955 1.49.86 1.357-1.203 1.49.86 1.543 1.685 1.447.704.496-.972 1.291.745 1.688.975.332 2.178-2.063.133.993.573 2.252.572 1.82 1.779-.86 1.49.525 1.958-.641 1.683-.415 2.21-.86 1.49-1.329 2.875.273 1.018.108 2.91-1.09 1.887.192 3.222-2.182 1.257-.174 2.481-1.205 2.086.301 2.69.013 1.927 1.592-1.266-.995-1.832 1.508-1.579s1.441-.89 2.381-1.142c.861-.231.692-2.116.692-2.116l1.345-1.872 1.399-1.047.457-2.053-.993-.573-1.196.236-.131-.804-.499-1.546 1.468-.477 1.175-.315.696 1.66.952.417.017 1.003-.517.894.785 1.049 1.219 1.101 1.092.631.212 2.042 1.103 1.299 2.247.238.273 1.018 3.188 1.245 1.589.917.65 2.429 2.124 2.285 1.567-.42.702 1.995-.783.21-.014 1.515-1.376 2.383-1.351 1.538.624 2.015.419 1.567-1.341.947-.024 2.105 1.391.803.441 1.645-.27 1.5-2.205-.081-1.362.868-1.375 3.643-1.905 1.35.367.741z" fill="#131313"/><path d="M377.298 184.184l-.245.653.93.338.224-.731-.909-.26zm-5.999-7.037l-.793.8 1.422.291 1.029.395.955-.507-.549-1.112-.956.507-1.108-.374zm-10.029-2.014l-.336-1.253-.531-2.293-.962-1.085-.919.33-.833 1.903.435 1.31-.297 1.087 1.042 2.323-.802 1.391.729 2.407-.003 2.184.076 2.162.909.26 1.367-1.793.85-.9 1.957-1.783 1.759-.64 1.81-2.332.551-2.33-1.188-1.613-1.14-1.122-.97.764-1.601-1.586-.993-.573-.703 1.448-.207 1.734zm-4.906 20.535l-.646 1.348-1.111.549 1.306.49.802-1.39-.351-.997zm-15.144 3.644l-.281.83.773.38.468-1.384-.96.174zm-12.546 21.157l-.808 1.056.842.95.819-.388-.853-1.618zm2.756 11.856l.116 1.06 1.566-.42.993.574-.278-1.352-.982.095-1.415.043zm-19.546-51.941l-.401.695.731.224 1.207.432-.017-1.003-1.52-.348zm11.334 64.215l-.416.951.685.991.837.616.588-1.249.077-1.28-.993-.574-.778.545zm-6.864-77.919l-.741.366-.344.596.993.573.934-.586.459-.794-1.301-.155zm16.684-6.064l-.516.894.695.401.695.401.881-1.411-.21-.783-1.545.498zm6.849-2.925l.164 1.552-1.164.983-1.68 1.877.504 1.88.993.574-.802 1.39-.328 1.599 1.297 1.08.749 1.227 2.122 1.026 1.168-1.908 1.018-.273 1.336-1.281 1.712-1.131-1.031-1.654-.609-2.272.845-1.234-1.192-.688-2.384-1.376-1.104-1.299-1.614-.072zm-1.068 13.552l-1.296.179.676 1.582.273 1.018 1.771.029.894.516.745-1.291.15-1.635-1.15-.531-2.063.133zm-9.677 43.475l-.344.596.773.38.934-.586-1.363-.39zm28.608 136.824l1.726 2.056 1.245 1.513-1.319 2.285 1.152 1.79 2.382.117 2.474-1.418 3.212-.861 2.518-.003 1.657 1.487 2.384 1.376 1.235 2.104 2.836-1.012 1.291.746-1.22 2.341-1.147 1.987-.268 2.758 2.118 1.951.89 1.441 1.723-.462 2.894.148.922 2.188-1.899 1.684-.645 2.608.798 2.976-1.67 1.287-1.549 2.682-1.39-.803-1.879 1.763-2.011-.301-2.115.567-2.571 3.879-3.446.924-1.764 1.564-2.548.515-1.851 3.434-1.39-.803.688-1.192-.993-.573-.504-1.88-1.063-2.402-1.422-.291-1.032 1.788-2.182 1.256-2.036.546-2.353-1.888-4.309 1.154-2.692-2.217-1.689-.974-2.086-1.205-2.957-.383-2.586-.566-2.768.322-2.429.651-1.489-.86-2.341.039-1.088-1.555-1.705-1.978-.359-2.591-1.489-.86-.546-2.036.404-2.879-.565-.856 2.379-2.401-.254-2.199 2.139-2.672 3.038-1.821-.996-3.091.965-5.8 3.085-1.33 2.623.388 3.447-.923 1.197 1.022 3.317-.469 2.254-1.611 2.881 1.663 1.754-.974 3.02.618.054-2.617 3.476-2.695 4.437 1.834z" fill="#131313"/><path d="M385.484 385.168l-.733-1.482-.097-2.241-1.67 1.287-1.548 2.681-1.391-.802-1.878 1.762-2.012-.3-2.115.566-2.57 3.88-3.368.902-1.764 1.564 1.195 3.206 1.082 1.221 1.346 2.83.742 4.335 1.757 1.544 1.784 1.956 1.801-.482 1.904 2.092 1.391.803.895 1.775 1.819.52 1.488-.399.435 1.311-1.299 1.104 1.26 1.257.76 1.895 1.067 1.477 2.42 1.199 1.959-.525 1.954.4.94-.252.561 1.781 1.331-.357-.44-1.645 1.032-1.788 1.261-2.185-1.249-.588-.962-1.086-.059-1.159.573-.994-1.276-1.001-1.291-.745 1.088-3.146-.566-2.115-.21-.784.458-.794-.335-1.254-1.808.149-.86 1.49-1.788-1.032 1.676-.953-.483-1.802.051-1.692-1.543-1.686-1.23-1.769 1.152-1.652 1.319-2.285 1.049-.784-.692-2.585-1.784-1.957-1.536-.092-.993-.574z" fill="#131313"/><path d="M388.1 393.362l1.6 1.586 2.426 1.533 2.063-.133.688-1.192 2.982-.463 1.713-1.131.962 1.086.087 2.831 2.582 1.491 1.257 2.182 2.681 1.548.504 1.88.989 1.498-.081 2.204-1.204 2.086.781 1.974-1.205 2.086-1.591 1.266-.274 2.424-.432 1.207-1.821 1.663.587 2.194-1.376 2.383-3.849.36-.631 1.093-1.019.272-.55 2.331-1.567.42-2.582-1.491.688-1.192-.995-1.832 1.95-3.377 1.331-.357-.44-1.645 2.293-3.973-1.113-.709-.963-1.085-.059-1.16.574-.993-1.276-1.002-1.291-.745.994-2.869-.683-3.175.459-.795-.336-1.253-1.807.148-.86 1.49-1.788-1.032 1.613-1.188-.42-1.566.05-1.693-1.543-1.685-1.23-1.77 1.132-1.73zm-284.779 57.331l-.878-.772-1.391-.803-.485.382.252.94.701.736 2.702 1.627 1.019-.273.208-.476 1.285.411.906 1.185-.459.794-1.118.216-.312 1.343-.94.252.441 1.645.644.835-.025.846-2.272.609-.888-.182-.631 1.092 1.992 1.482.821.871.344-.596.977-.429-.21-.784.537-.815.803-1.391.619-1.761.631-1.093.835-.643.748 1.227.255-1.244-.588-2.193-.378-1.41-.831-.281-.794-.459-.988-.239-.607-1.013-1.358-.056-.486.382-1.081.038zm418.026-338.016l-1.376 2.384.378 1.41 1.191.688-1.958.524-1.424 1.893-2.212 1.768-3.477-2.007-1.688-.974-2.7.891-3.164 1.351-1.271 2.776-1.548 2.681-1.52 4.354.776 2.898-1.286 3.031-1.377 2.384-2.093.645-2.153-.515-2.265 2.202s1.319 2.417.922 2.188c-.397-.23-2.404-1.455-2.404-1.455l-.991 1.945-2.193.587s-1.457-.113-.999-.907c.459-.795 1.006-2.201 1.006-2.201l-2.138-.77-2.64 2.051-1.842 1.585-.19 2.737-.014 1.515 1.487 3.044.504 1.88-1.304 2.028-.558-3.964-2.048-.123-1.09 1.887-1.513 1.245-.009-2.852s1.691-1.209 1.544-1.757c-.168-.627-.664-.914-.664-.914l-2.563 2.03-3.303 2.397-.175 2.481-2.364 2.145-1.88.504-.917 1.589 2.451.686.691 1.326-1.669 2.546.567 2.115 1.385.469.325-2.858.873.438.588 2.193 1.954.4 1.887 1.089.81.203-1.089 1.887-1.901.425-.782 1.469-.631 1.093 2.623.388.399 1.489-2.361-.039-1.859.582-2.417 1.319-.718 2.963 1.163 2.459-2.507.671-2.025 1.215-1.788-1.032-2.59.358.482 1.802 1.589.917.378 1.41 1.026 1.32 1.899 3.017.269 1.943-2.586-.566-.631 1.093-2.22.175-1.761-.62-2.483-1.433-2.016.624-.419-1.567s-1.24-1.179-1.093-.631c.147.549-.824 1.312-.824 1.312l-1.787-1.032.573-.993 1.148-.727-.587-2.194-1.291-.745-1.566 1.678-.503-1.879-1.49-.861-1.175.315.133-2.638-2.56-.154-.516.894-2.655-1.135s.017 1.003-.688 1.192c-.705.188-.144 1.969-.144 1.969l-.616.837-1.014-.652-.72.445-.077 1.28-1.861-.677-1.291-.746-1.001 1.276-1.49-.86.002 1.259.217 2.376 2.097 1.873.838 1.875s.952 1.675.482 1.801c-.47.126-2.558 1.105-2.558 1.105l-1.632 2.369-1.905 1.35-1.679-1.565-.019 1.18.131.805-3.055.818-2.086-1.204.517-.894-1.099-.965-2.745 1.659-3.571 1.713-2.171 1.925-1.319 2.284-.688 1.192 1.746.875-1.175.315-1.637-1.408-.525-1.959-1.291-.745-.791 2.059-.077 1.28-2.168-.259-1.829.07.697 1.661.951.417.017 1.002-.516.894.785 1.049 1.218 1.101 1.093.631.211 2.042 1.104 1.3 2.247.237.272 1.018 3.188 1.245 1.59.918.65 2.428 2.124 2.285 1.566-.42.703 1.995-.784.21-.013 1.515-1.377 2.384-1.351 1.537 1.044 3.582-1.341.947-.024 2.106 1.391.802.44 1.645-.269 1.5-2.205-.081-1.362.869-1.375 3.642-1.905 1.35.21.784.905 1.184 1.245 1.514 2.038.713 1.038 3.248 2.563 2.671.357 1.332 1.142 2.381 1.576 3.691-1.362.869-.578 1.917-.688 1.192.989 1.498.402-.695 2.09.28.44 1.645.894.516-.537.815.462 1.724 1.975.478 1.283 2.594 2.582 1.491-.18 2.147-.671 2.195.869 1.363.356 1.331-.458.795.524 1.958 1.145.197 1.645-.441.573-.993.94-.252 1.134.788 1.613-1.188 1.5.27.803-1.391 1.509-.32.393 1.154 1.788 1.032.336 1.253-1.227.749.525 1.958 1.603-.597 1.519-.911 1.761.62 1.841 1.857 1.136 2.046.894.516-.459.795.378 1.41 1.755.285 1.41-.378 1.391.803.247 1.865-.573.993.357 1.332 1.39.802.905 1.185.472 1.133 1.379.134 1.912.243.651 2.429.28 2.611.755 2.82.485 3.061 1.557 4.872 2.98 1.72 2.073-.724.619-1.761.123-2.048 1.567-.419 2.954-2.135-.128-1.729 1.107-.884 1.688.975.462 1.723 1.516 1.273-.546-2.037 2.103-2.494-.882-3.29 1.376-2.384.118-2.382-1.073-1.811 1.032-1.788.102-2.126.797-1.725 2.199-.253 2.052-.802 2.466.431 2.021-.29.483 1.801 1.15.532.378 1.41 2.277-.275 1.032-1.787-.399-1.489 1.567-.419 1.39.802 1.731 1.132.377 1.41 1.296-.179 1.371 1.983 1.688.975 1.887 1.089-.019 1.181 1.291.745 1.079 2.146 2.403.196 2.112 1.617 1.614.071.462 1.723 1.771.029 1.261-2.185 1.518-2.169 1.958-.525.631-1.093 1.39.803 1.573-.085.516-.894 1.958-.525 1.056.809 1.254-.336-.008-1.594 2.633-.201.631-1.093 1.696-.874 1.855.342 2.682 1.549 1.456-1.146 1.676-.953.489-1.306 1.5.27.745-1.292 1.097-.293 1.291.745.745-1.291 2.122-3.675 2.199-.253-.357-1.332 2.39-1.732 2.064-.133 1.622-1.778-.702-1.995 2.687-2.818 2.383-3.326-1.789-2.291-.525-1.958-1.689-.975.861-1.49-.38-2.668-3.056-.441-2.193.588-.592-1.269 1.482-.733-1.224-1.435-.348-3.181-1.964.191-2.405-1.455 1.54-.832-.473-2.392-.894-.516-.805-1.128.206-1.734-1.589-.918.641-1.683-1.093-.63-.566-2.115 1.763-1.564 1.122-1.14 1.687-.284.975-1.689 1.613-1.188-.227-1.786-1.49-.86.186-1.813 2.146-1.079 2.236-3.873-1.08-3.405 2.004-1.292-.294-1.097-2.681-1.548-.869-1.362-2.98-1.721-1.572.086-.838-1.875-.217-2.376-1.49-.86 1.172-2.833-.567-2.115-.536-2.627-1.191-.688-.974-1.754-1.093-.631-.687-2.25 1.619-.854 1.593-.007 2.231.494 1.685-1.543 1.441-.89 1.147-1.986.572-2.253 1.509-.32.715-.779.794.459.778-.545-.441-1.645-.891-2.699-.19-1.964-1.887-1.09-.707-1.07-1.688-.974-2.665-.546-1.004-1.242-2.233-1.752-.315-1.175-.888-.182-.133-2.063.458-.795-1.39-.803-.148-1.807 2.312-1.711-.252-.94 1.979-.446-.744-2.151-1.615-.072-1.375-1.058.939-1.511 1.253-.336-.42-1.567 1.023-1.197-.294-1.097 1.462-.811 1.233.845 1.29-.514.327-1.599-.806-1.127.744-2.55.093-1.536 1.268-.592-.336-1.253-1.187-1.613-1.897-.499-1.987-1.147-.482-1.802-.682-1.916-1.698-.384-1.396-1.137-.441-1.645 1.112-.55-.989-1.498-1.771-.029-.085-1.573 1.534-1.166-.461-1.724.573-.993 1.958-.525-.389-2.078 2.507-.672.745-1.291-1.172-1.869.421-1.876-1.7-1.643-1.097.294-1.585-1.842-1.489-.86-1.645.44-1.848 1.251-2.09-.28-2.042.212-.609-2.272-1.797-.442-1.308-1.748.671-2.195-.546-2.036 1.08-1.297-.525-1.958.311-2.602 1.616-2.113-2.259-2.165-1.99-.222-.806-1.127-2.021.289-2.56-.153-1.234-.845zm-69.232 21.412l-.345-.663 1.499.27.516-.894.688-1.192 1.032-1.787 1.135.787.47-.126.803-1.39.682-1.527 1.728-1.386 1.703.719-.174 2.481.336 1.254-.689 1.192-1.299 1.103-1.477 1.068-1.645.44-.917 1.59-2.148-.181-1.396-1.137-.502-.621zm-2.786 2.76l-2.898.777-.688 1.192-1.216 1.417-1.39-.803-2.375 1.476.597 1.603.894.516 1.291.745.894.517-.808 1.056-1.647-.818-.516.893-1.291-.745-2.146 1.079-1.165-.276-.155 1.301.894.516-1.122 1.14.462 1.724 1.39.802.101 1.317 1.019-.273 1.589.917-.014 1.515 1.855.343 2.214-.51 1.171.61 1.645-.441 1.733-1.052-.378-1.41-1.469-.781.459-.795 1.192.688.826-3.496 1.147-1.986.894.516 1.032-1.788.113-1.457-1.792-.108-.803 1.391-1.604-.662-1.918-.577-1.96-.735.234-1.321.631-1.093 1.313 2.083 1.291.745 1.808-.148.97-.764.94-.252.631-1.092-.974-1.754-1.488.398-.049-1.75-.315-1.175-1.049.785zm5.749 15.504l-.595.915 1.11 1.633 1.291.746.421-1.876-.357-1.332-.795-.458-1.075.372z" fill="#131313"/><path d="M459.173 152.928l-.745 1.291.926 1.263 1.291.745-.249 1.578.696.402.321-1.933 1.911-1.016 1.613-1.188 2.05-2.06-1.883-2.015-1.723.462-2.638-.132-.824 1.312-.746 1.291zm-21.233 1.58l-.993-.573-1.431.299 1.191.688 1.115 1.968 1.175-.314-.314-1.175-.743-.893zm-35.662 47.083l-1.204 2.086.294 1.096 1.41-.377.764.97 1.028-.863.975-1.688-.588-2.193-1.723.461-.956.508zm41.692-79.089l-.275 1.164.695.402.557-.737-.977-.829zm5.524 40.664l-1.829.07-.422.617 1.144.197 1.526.682.36-.851-.779-.715zM122.395 300.68l9.086-2.435.777 2.898 2.083 3.388 6.656 9.802 2.644.467 2.124 2.286 2.209 3.857-.592 3.433-.812 1.981-1.212.492-.332 1.265-1.964.19-.803 1.391-1.581-2.767-.993-.573-1.28-.077.291-1.421-.315-1.175-1.4-.213-.472-1.133-1.431.3-.631 1.092-1.453-1.038-.379-2.669-.925-.004-1.291-.745-.73 1.035-.955.508-1.735-.207-1.609.263-2.271.609-1.083-1.221-.757.622-.516.894-1.373.2-.917-1.853.066-1.949-1.005-1.242-.456-1.389-1.589-.917.27-1.5-1.553-1.095 1.644-1.699 2.831-.087-.007-1.594.63-1.092 1.934.321 1.808 1.111 2.383.117 1.266 1.592-.23.397.147.549.013 1.927.663-.345 1.029.395.308-.418.392-.105.756-.622-.209-.784.323-.674-.21-.783-.319-.251-.495.973-1.012-2.836-2.221-1.084-.903-3.368 1.462-.811.344-.596-2.424-.274-1.694-1.309z" fill="#131313"/><path d="M131.483 298.246l.777 2.899 2.083 3.387 6.656 9.802 2.644.467 2.124 2.286 2.209 3.858 1.935-1.862.922-2.514 1.265.333 1.528-1.501 1.498-.989 1.729-.128 1.578.249 1.561-.754 1.463.447.309.841 1.83 1.189.553-1.072.663-.345 1.433-2.483-.106-1.651-.592-1.268 1.519-.911.238-2.247-2.384-1.376-.437-2.569.176-1.223 1.086-.963.249-1.577-.498-1.546.437-.873 1.056.808.344-.595 1.208.432.77-2.138.739-2.884-2.748-4.301 1.319-2.285-.161-3.734 1.433-2.483 2.219-1.434.591-3.433-.196-2.298-1.788-1.032.803-1.391-.75-2.485-1.232.414-1.187-.354-1.54.832-1.39-.802.15-1.636-.248-1.864-5.933-3.028-1.855 7.801-1.934-.321-2.711 3.665-1.546.498.902 3.368-1.612 1.188.692 2.585-1.846 2.509-2.741.735 1.058 6.769.692 2.584-3.753 2.601-13.253 3.803zm-5.269 12.915c.021.079.021.079-.058.1-.057.099.021.078.042.156.021.079-.057.1-.036.178l.042.157c.021.078.021.078-.058.099-.078.021.021.078-.057.099-.057.1.042.157-.036.178-.058.099.021.078-.058.099-.057.1.021.079.042.157s.021.078-.057.099c-.057.1-.057.1-.036.178l.042.157.042.156c.021.079.099.058.099.058l.042.156c.021.079.021.079.099.058l.157-.042c.078-.021.078-.021.057-.1.079-.021.058-.099.136-.12.078-.021.057-.099.057-.099.079-.021.136-.121.157-.042.099.057.078-.021.099.057.1.057.021.078.1.057l.099.058c.021.078.021.078.099.057.1.057.079-.021.1.057.099.058.135-.12.156-.042l.1.058c.078-.021.078-.021.099.057l.099.058.157-.042c.078-.021.177.036.156-.042l.058-.1s.156-.042.135-.12c.079-.021.058-.099.136-.12.078-.021.078-.021.058-.1.057-.099.078-.021.156-.042.079-.021.079-.021.058-.099.057-.099.078-.021.057-.099.057-.1.078-.021.136-.121.078-.021.057-.099.057-.099l-.042-.157-.042-.156-.042-.157c-.021-.078.057-.099.057-.099l.058-.1c-.021-.078.078-.021.057-.099-.021-.078.057-.099.057-.099-.021-.079.058-.1.058-.1l-.042-.156-.042-.157-.063-.235c-.021-.078-.021-.078.057-.099.057-.099-.021-.078-.042-.157l-.042-.156c-.021-.079-.099-.058-.099-.058-.021-.078-.021-.078-.1-.057l-.099-.058c-.021-.078-.021-.078-.099-.057-.099-.057-.078.021-.178-.036l-.156.042-.157.042-.157.042c-.078.021-.057.099-.057.099l-.157.042c-.078.021-.177-.036-.156.042l-.058.099-.156.042c-.079.021-.058.1-.136.121-.078.021-.099-.058-.178-.037l-.235.063-.156.042-.157.042c-.078.021-.178-.036-.157.042-.057.099-.057.099-.135.12-.079.021-.058.1-.058.1-.078.021-.057.099-.057.099l-.078.021.021.078.078-.021M85.112 430.982l.26-.909.046-.768.209-.476.401-.695.606-.246 1.494-.065.871-.821 1.5-3.172-.078-4.681-1.72-1.722-.759-.636-.962-1.085-.617-.423-.325-.584-.638-.501-.987-.239-.267-.684-.956.508-.5.637-.553 1.072-.825.053-.585.325.267.684.403.563-.663.346-.324-.585-.423.617-.292.163-1.008-.318-.41-.898-.207.476-.8-.793-.826.053-.475-.208-.585.324-.402.695-.716-.479-.48.716.111.726-.046.768-.768-.046-.325-.585-.663.346.587.934.538.443.325.585-1.118.215-.754-1.561-.508-.955.339-.93-.988-.239.032.747.483 1.801.487.877.617.423.878.772.508.955 1.072.553.507.955.722.814-.21-.783 1.003-.017-1.014-.652-.878-.772 1.3.155.8.793.727-.11.638.5.424.642.194 1.04 1.04-.195.349-.262.678-.601.696.401.324.585.053.825.247.606.638.501.955-.508 1.17.61-.846-.026-.4.696.803-.132-.025.846.423-.616.5-.638.163.292-.402.695-.046.768-.5.638-.052.434.084.313" fill="#131313"/><path d="M97.026 429.717l.35-.261.663-.346.292-.162.663-.346 1.076-.372 1.075-.372 2.947-3.728-1.869-3.529-1.171-.61-1.008-.318-.716-.479.025-.847-.054-.825.13-.454-.638-.501-.261-.35-.267-.684-.35.262-.455-.13-.554-.188-.183-.37-.512-.031-.638-.501-1.03-.396-.324-.584-.187.554-.052.433-.5.638-.188.554-.37.183.13.805-.687 1.192-.402.695-.846-.025-.424-.642.209-.476-.455-.13-.632-.166-.747.032-.371.183-.292.162-.11.533.325.585.476.208-.13.455-.48.716-.13.455.053.825.163.293.267.684.131.804-.663.345-.533-.109-.663.346.184.371.053.825.053.825.455.13.261.35-.046.768.053.825.476.209.642-.424-.48.716-.663.345-.663.346-.454-.13-.663.345.162.293.846.025.904-.074.585-.325.48-.716.955-.508.187-.554.93.339.826-.054.976-.429.512.031 1.03.395.162.293-.13.454-.371.184-.292.162-.642.424.345.663.642-.424.663-.346.13-.454.642-.424.13-.455.554.188.162.292.184.371.162.292" fill="#131313"/><path d="M113.394 426.257l-.757.622-.428.283-.136.12-.214.142-.966-.161-1.123-.119-.272.241-.699.523-.465.46-.485.382-.782 1.469-.899-.851-.209.476-.955.508.501-.638-1.249-.589-.747.032-.554-.187-.768-.046-.805.131-.846-.025-1.008-.317.13-.455.642-.424-.033-.747-.183-.37.025-.847.715-.779.533.109.554.188.825-.054-.053-.825-.533-.109-.162-.292.088-.612-.617-.422-.346-.663-.032-.747.187-.554-.162-.292.109-.533.109-.533.371-.183.501-.638.03-.512.717.48.345.663.501-.638.85-.9-.053-.825-.053-.825.585-.325.025-.846-.184-.371.339-.93.642-.424.105.392.716.479 1.196-.236.663-.346.642-.424.313-.084.293-.162 1.196-.236-.006-.335.036-.177.795.458 1.568.84.695.401 1.359 4.757-.074 3.798-.003 2.183-.709 1.114" fill="#131313"/><path d="M113.595 425.441l-.317 1.009.454.13.659.579 1.301.155.346.663 2.425 1.533 1.606-2.781.115-.199.271-.24.214-.141.25-.319.407-.361-.979-2.089.151-.376.172-.298.25-.319.151-.376.308-.418.256.015 1.217-.158-.498-1.546.371-.183.605-.246.314-.084.292-.163.235-.063.235-.063.214-.141.157-.042.214-.141.919-.33.051-.434-.005-.334.109-.533.015-.256.073-.355.094-.277.036-.178.115-.199.114-.198.151-.377-2.09-.279-.251-.94-.231-.862-.084-.313-1.454-1.038-.418-.308-.544-.777-.225-.528-.121-.135-.141-.214-.12-.136-.084-.313-1.165-.276-.554-.187-.298-.172-.518-.365-.418-.308-.497-.287-.319-.25-.119 1.123-.5.638-.13.455-.663.345-1.055.451-.317 1.008-.339.931-.187.554-.501.637.638.501-.318 1.009-.5.638.638.5-.209.476.053.825-.663.346-.391.105-.188.554.033.747.267.684.053.825-.663.345.084.314.183.37.346.663-.371.184.8.793.054.825.084.313" fill="#131313"/><path stroke="#FF522D" d="M164.989 354.853l-47.17-134.771"/></g><defs><clipPath id="clip0_1174_178347"><path fill="#fff" transform="rotate(-15 647.226 82.341)" d="M0 0h655.971v372.142H0z"/></clipPath></defs></svg>