<svg width="284" height="218" fill="none" xmlns="http://www.w3.org/2000/svg"><g clip-path="url(#clip0_1183_177972)"><mask id="mask0_1183_177972" style="mask-type:alpha" maskUnits="userSpaceOnUse" x="-2" y="9" width="269" height="269"><circle cx="132.789" cy="143.784" r="134.199" transform="rotate(-135 132.789 143.784)" fill="#151515"/></mask><g mask="url(#mask0_1183_177972)" stroke="#E6A691" stroke-width="2"><path d="M335.039 158.805L117.773-58.461m30.039 404.492L-69.453 128.766m392.789 41.742L106.07-46.758m205.571 228.961L94.375-35.062m205.563 228.976L82.672-23.351m205.555 228.968L70.961-11.648m205.57 228.953L59.266.039m205.57 228.969L47.57 11.742m205.555 228.985L35.859 23.461m205.579 228.961L24.172 35.156m205.562 228.961L12.469 46.852M218.023 275.82L.758 58.555M206.32 287.531L-10.945 70.266m205.57 228.968L-22.641 81.969M182.922 310.93L-34.344 93.664m205.563 228.969L-46.047 105.367m205.563 228.969L-57.75 117.07"/></g></g><defs><clipPath id="clip0_1183_177972"><path fill="#fff" d="M0 0h284v218H0z"/></clipPath></defs></svg>